<svg id="Group_10560" data-name="Group 10560" xmlns="http://www.w3.org/2000/svg" width="84" height="84" viewBox="0 0 84 84">
  <rect id="Frame" width="84" height="84" fill="#fff" opacity="0"/>
  <path id="Path_484" data-name="Path 484" d="M291.891,144.426a12.255,12.255,0,0,1-.1-1.582v-5.906a11.31,11.31,0,0,1,3.515-8.332,11.568,11.568,0,0,1,8.438-3.48,11.884,11.884,0,0,1,11.883,11.812v5.906a11.588,11.588,0,0,1-.563,3.621,11.767,11.767,0,0,1-1.617,3.2,13.307,13.307,0,0,1,8.156,4.57,13.075,13.075,0,0,1,3.305,8.859v20.461h-72V154.516a13.063,13.063,0,0,1,3.551-9.14,13.488,13.488,0,0,1,8.754-4.43,11.45,11.45,0,0,1-1.864-3.3,11.157,11.157,0,0,1-.668-3.867v-7.031a11.306,11.306,0,0,1,3.516-8.332,11.966,11.966,0,0,1,16.875,0,11.309,11.309,0,0,1,3.516,8.332v7.031a11.177,11.177,0,0,1-.7,3.973,11.966,11.966,0,0,1-1.9,3.339,14.273,14.273,0,0,1,4.57,1.758,14.592,14.592,0,0,1,3.657,3.094A9.448,9.448,0,0,1,291.891,144.426Zm-18.176,25.981a9.311,9.311,0,0,1-.773-3.8V163.3a9.724,9.724,0,0,1,9.7-9.7,9.593,9.593,0,0,1,1.652.141,9.373,9.373,0,0,1,1.582.422,15.051,15.051,0,0,1,2.848-2.461,13.038,13.038,0,0,1,3.41-1.618,11.57,11.57,0,0,0-4.078-4.921,11.362,11.362,0,0,0-6.117-2.039,11.692,11.692,0,0,1-3.41,1.828,12.365,12.365,0,0,1-7.805,0,11.667,11.667,0,0,1-3.41-1.828h-.7a11.094,11.094,0,0,0-8.086,3.339,10.918,10.918,0,0,0-3.375,8.051V181.3H270.2a13.211,13.211,0,0,1,2.074-4.465,12.681,12.681,0,0,1,3.551-3.339A10.062,10.062,0,0,1,273.715,170.407Zm.914-27a9.229,9.229,0,0,0,6.821-2.848,9.323,9.323,0,0,0,2.812-6.785v-7.031a9.6,9.6,0,0,0-9.633-9.563,9.408,9.408,0,0,0-6.855,2.813,9.148,9.148,0,0,0-2.848,6.75v7.031a9.724,9.724,0,0,0,9.7,9.633Zm10.618,32.519a10.692,10.692,0,0,1-2.6.317,10.25,10.25,0,0,1-2.566-.317,9.7,9.7,0,0,1-2.356-.949,10.184,10.184,0,0,0-5.133,6.328h20.18a9.825,9.825,0,0,0-1.934-3.691,10.484,10.484,0,0,0-3.269-2.637A8.479,8.479,0,0,1,285.247,175.926Zm2.707-4.043a7.124,7.124,0,0,0,2.214-5.273V163.3a7.127,7.127,0,0,0-2.214-5.273,7.306,7.306,0,0,0-5.309-2.18,7.443,7.443,0,0,0-7.453,7.453v3.305a7.443,7.443,0,0,0,7.453,7.453A7.3,7.3,0,0,0,287.954,171.883Zm5.1,4.993a12.3,12.3,0,0,1,2.039,4.429h27.563V163.094a11.47,11.47,0,0,0-11.11-11.39,11.218,11.218,0,0,1-3.55,2.179,11.683,11.683,0,0,1-4.254.774,11.956,11.956,0,0,1-4.289-.774,11.1,11.1,0,0,1-3.586-2.179,11.367,11.367,0,0,0-7.875,3.515,9.75,9.75,0,0,1,3.2,3.41,9.251,9.251,0,0,1,1.23,4.676v3.305a9.311,9.311,0,0,1-.773,3.8,9.521,9.521,0,0,1-2.18,3.094A12.934,12.934,0,0,1,293.051,176.876Zm10.688-24.469a9.319,9.319,0,0,0,6.785-2.813,9.148,9.148,0,0,0,2.848-6.75v-5.906a9.151,9.151,0,0,0-2.848-6.75,9.677,9.677,0,0,0-13.641,0,9.15,9.15,0,0,0-2.847,6.75v5.906a9.147,9.147,0,0,0,2.847,6.75A9.4,9.4,0,0,0,303.739,152.407Z" transform="translate(-246.903 -107.242)" fill="#254e6d"/>
</svg>
