<svg xmlns="http://www.w3.org/2000/svg" width="84" height="84" viewBox="0 0 84 84">
  <g id="Group_10560" data-name="Group 10560" transform="translate(-0.251)">
    <rect id="Frame" width="84" height="84" transform="translate(0.251)" fill="#fff" opacity="0"/>
    <path id="Path_462" data-name="Path 462" d="M455.4,142.531a6.118,6.118,0,0,1,12.235,0v10.407a6.118,6.118,0,0,1-12.235,0V142.531Zm9.985,0a3.868,3.868,0,1,0-7.735,0v3.586A6.512,6.512,0,0,1,459.4,145.1a5.943,5.943,0,0,1,4.219,0,6.543,6.543,0,0,1,1.758,1.019Zm-1.125,5.555a3.868,3.868,0,0,0-6.61,2.742v2.11a3.768,3.768,0,0,0,1.125,2.707,3.822,3.822,0,0,0,5.485,0,3.772,3.772,0,0,0,1.125-2.707v-2.11A3.735,3.735,0,0,0,464.256,148.086Zm7.8-26.3-6.68-9.141,23.976-16.171h15.61l24.609,16.1-6.609,9.211L512,118.625l.07,40.43H482.256l.07-40.43Zm-3.868,20.742a6.118,6.118,0,0,1,12.235,0v10.407a6.118,6.118,0,0,1-12.235,0V142.531Zm16.383-12.937H493.3l2.672-8.508-6.891-21.727-20.531,13.852,4.359,5.977,11.672-3.586Zm-6.4,12.937a3.868,3.868,0,1,0-7.735,0v3.586A6.513,6.513,0,0,1,472.2,145.1a5.943,5.943,0,0,1,4.219,0,6.543,6.543,0,0,1,1.758,1.019Zm-1.125,5.555a3.868,3.868,0,0,0-6.61,2.742v2.11a3.768,3.768,0,0,0,1.125,2.707,3.822,3.822,0,0,0,5.485,0,3.772,3.772,0,0,0,1.125-2.707v-2.11A3.735,3.735,0,0,0,477.053,148.086Zm7.453,8.719h8.578V131.844h-8.508Zm6.68-58.078,5.976,18.7,5.977-18.7Zm18.632,33.117H495.334V156.8h14.484Zm-.07-16.242,12.3,3.586,4.289-6.047L505.318,99.359l-9.632,30.235h14.132Z" transform="translate(-450.235 -85.766)" fill="#254e6d"/>
  </g>
</svg>
