<svg xmlns="http://www.w3.org/2000/svg" width="84" height="84" viewBox="0 0 84 84">
  <g id="Group_10559" data-name="Group 10559" transform="translate(-0.251)">
    <rect id="Frame" width="84" height="84" transform="translate(0.251)" fill="#fff" opacity="0"/>
    <path id="Union_1" data-name="Union 1" d="M195.146-3090.728a8.491,8.491,0,0,1,1.124-4.41,6.319,6.319,0,0,0,.876-3.383,6.324,6.324,0,0,0-.876-3.383,8.489,8.489,0,0,1-1.124-4.41,8.483,8.483,0,0,1,1.124-4.408,6.311,6.311,0,0,0,.876-3.38,1.126,1.126,0,0,1,1.125-1.125,1.125,1.125,0,0,1,1.125,1.125,8.473,8.473,0,0,1-1.124,4.407,6.322,6.322,0,0,0-.876,3.381,6.332,6.332,0,0,0,.876,3.383,8.482,8.482,0,0,1,1.124,4.41,8.476,8.476,0,0,1-1.124,4.41,6.333,6.333,0,0,0-.876,3.383,1.125,1.125,0,0,1-1.125,1.125A1.126,1.126,0,0,1,195.146-3090.728Zm-11.018,0a8.491,8.491,0,0,1,1.124-4.41,6.319,6.319,0,0,0,.876-3.383,6.324,6.324,0,0,0-.876-3.383,8.489,8.489,0,0,1-1.124-4.41,8.483,8.483,0,0,1,1.124-4.408,6.311,6.311,0,0,0,.876-3.38,1.126,1.126,0,0,1,1.125-1.125,1.126,1.126,0,0,1,1.125,1.125,8.482,8.482,0,0,1-1.124,4.407,6.314,6.314,0,0,0-.876,3.381,6.324,6.324,0,0,0,.876,3.383,8.491,8.491,0,0,1,1.124,4.41,8.485,8.485,0,0,1-1.124,4.41,6.325,6.325,0,0,0-.876,3.383,1.126,1.126,0,0,1-1.125,1.125A1.126,1.126,0,0,1,184.128-3090.728Zm-11.021,0a8.5,8.5,0,0,1,1.124-4.41,6.318,6.318,0,0,0,.877-3.383,6.323,6.323,0,0,0-.877-3.383,8.5,8.5,0,0,1-1.124-4.41,8.492,8.492,0,0,1,1.124-4.408,6.31,6.31,0,0,0,.877-3.38,1.126,1.126,0,0,1,1.125-1.125,1.126,1.126,0,0,1,1.125,1.125,8.482,8.482,0,0,1-1.124,4.407,6.321,6.321,0,0,0-.877,3.381,6.332,6.332,0,0,0,.877,3.383,8.491,8.491,0,0,1,1.124,4.41,8.485,8.485,0,0,1-1.124,4.41,6.333,6.333,0,0,0-.877,3.383,1.126,1.126,0,0,1-1.125,1.125A1.126,1.126,0,0,1,173.108-3090.728Zm-11.018,0a8.482,8.482,0,0,1,1.124-4.41,6.319,6.319,0,0,0,.876-3.383,6.324,6.324,0,0,0-.876-3.383,8.48,8.48,0,0,1-1.124-4.41,8.474,8.474,0,0,1,1.124-4.408,6.311,6.311,0,0,0,.876-3.38,1.126,1.126,0,0,1,1.125-1.125,1.126,1.126,0,0,1,1.125,1.125,8.482,8.482,0,0,1-1.124,4.407,6.314,6.314,0,0,0-.876,3.381,6.324,6.324,0,0,0,.876,3.383,8.491,8.491,0,0,1,1.124,4.41,8.485,8.485,0,0,1-1.124,4.41,6.325,6.325,0,0,0-.876,3.383,1.126,1.126,0,0,1-1.125,1.125A1.126,1.126,0,0,1,162.09-3090.728Zm-11.019,0a8.491,8.491,0,0,1,1.124-4.41,6.319,6.319,0,0,0,.876-3.383,6.324,6.324,0,0,0-.876-3.383,8.489,8.489,0,0,1-1.124-4.41,8.483,8.483,0,0,1,1.124-4.408,6.311,6.311,0,0,0,.876-3.38,1.126,1.126,0,0,1,1.125-1.125,1.126,1.126,0,0,1,1.125,1.125,8.473,8.473,0,0,1-1.124,4.407,6.322,6.322,0,0,0-.876,3.381,6.332,6.332,0,0,0,.876,3.383,8.482,8.482,0,0,1,1.124,4.41,8.476,8.476,0,0,1-1.124,4.41,6.333,6.333,0,0,0-.876,3.383,1.126,1.126,0,0,1-1.125,1.125A1.126,1.126,0,0,1,151.071-3090.728Zm-1.649-30.722v-2.25h51.738v2.25Zm55.409-2.313a5.256,5.256,0,0,0,5.251-5.25V-3141.5a5.257,5.257,0,0,0-5.251-5.251H145.751a5.257,5.257,0,0,0-5.251,5.251v12.488a5.255,5.255,0,0,0,5.251,5.25v2.25a7.5,7.5,0,0,1-7.5-7.5V-3141.5a7.5,7.5,0,0,1,7.5-7.5h59.081a7.5,7.5,0,0,1,7.5,7.5v12.488a7.5,7.5,0,0,1-7.5,7.5Zm-55.409-2.187v-2.25h51.738v2.25Z" transform="translate(-133.04 3161.302)" fill="#254e6d" stroke="rgba(0,0,0,0)" stroke-miterlimit="10" stroke-width="1"/>
  </g>
</svg>
