<svg id="Group_10560" data-name="Group 10560" xmlns="http://www.w3.org/2000/svg" width="84" height="84" viewBox="0 0 84 84">
  <rect id="Frame" width="84" height="84" fill="#fff" opacity="0"/>
  <path id="Path_485" data-name="Path 485" d="M634.043,158.629v-.14L626.871,134.3V121.575a1.082,1.082,0,0,0-1.125-1.125H598.254a1.082,1.082,0,0,0-1.125,1.125V134.3l-7.172,24.188v.14c-.047.048-.07.083-.07.106v18.176a1.036,1.036,0,0,0,.351.808,1.133,1.133,0,0,0,.774.317,1.085,1.085,0,0,0,1.125-1.125v-5.133h39.726v5.133a1.085,1.085,0,0,0,1.125,1.125,1.135,1.135,0,0,0,.774-.317,1.039,1.039,0,0,0,.351-.808V158.84A.527.527,0,0,1,634.043,158.629ZM599.379,122.7h25.242v10.617h-2.18v-1.969a3.963,3.963,0,0,0-4.007-4.008H605.566a3.963,3.963,0,0,0-4.007,4.008v1.969h-2.18Zm20.812,8.648v6.258a1.57,1.57,0,0,1-.527,1.195,1.745,1.745,0,0,1-1.23.492H605.566a1.706,1.706,0,0,1-1.265-.492,1.625,1.625,0,0,1-.492-1.195v-6.258a1.746,1.746,0,0,1,.492-1.23,1.649,1.649,0,0,1,1.265-.528h12.868a1.8,1.8,0,0,1,1.757,1.758ZM599.1,135.567h2.461v2.039a3.784,3.784,0,0,0,1.16,2.777,3.867,3.867,0,0,0,2.847,1.16h12.868a3.867,3.867,0,0,0,2.847-1.16,3.784,3.784,0,0,0,1.16-2.777v-2.039H624.9l6.539,22.148H592.559Zm32.765,33.961H592.137v-9.563h39.726Z" transform="translate(-570 -107.243)" fill="#254e6d"/>
</svg>
