<svg id="Group_10558" data-name="Group 10558" xmlns="http://www.w3.org/2000/svg" width="84" height="84" viewBox="0 0 84 84">
  <rect id="Frame" width="84" height="84" fill="#fff" opacity="0"/>
  <path id="Path_486" data-name="Path 486" d="M542.592,156.661v-.141l-7.172-24.187V119.606a1.082,1.082,0,0,0-1.125-1.125H482.8a1.082,1.082,0,0,0-1.125,1.125v12.727l-7.172,24.187v.141c-.047.047-.07.082-.07.105v18.176a1.037,1.037,0,0,0,.351.809,1.139,1.139,0,0,0,.774.316,1.083,1.083,0,0,0,1.125-1.125v-5.133h63.726v5.133a1.083,1.083,0,0,0,1.125,1.125,1.139,1.139,0,0,0,.774-.316,1.04,1.04,0,0,0,.351-.809v-18.07A.537.537,0,0,1,542.592,156.661Zm-58.664-35.93H533.17v10.617h-2.634v-1.969a3.961,3.961,0,0,0-4.008-4.007H513.661a3.961,3.961,0,0,0-4.008,4.007v1.969h-2.208v-1.969a3.961,3.961,0,0,0-4.008-4.007H490.57a3.961,3.961,0,0,0-4.008,4.007v1.969h-2.634Zm44.358,8.648v6.258a1.574,1.574,0,0,1-.528,1.2,1.746,1.746,0,0,1-1.23.492H513.661a1.71,1.71,0,0,1-1.266-.492,1.629,1.629,0,0,1-.492-1.2v-6.258a1.75,1.75,0,0,1,.492-1.23,1.649,1.649,0,0,1,1.266-.527h12.867a1.8,1.8,0,0,1,1.758,1.757Zm-23.091,0v6.258a1.577,1.577,0,0,1-.527,1.2,1.75,1.75,0,0,1-1.231.492H490.57a1.714,1.714,0,0,1-1.266-.492,1.629,1.629,0,0,1-.492-1.2v-6.258a1.75,1.75,0,0,1,.492-1.23,1.652,1.652,0,0,1,1.266-.527h12.867a1.8,1.8,0,0,1,1.758,1.757ZM483.647,133.6h2.915v2.039a3.792,3.792,0,0,0,1.16,2.778,3.875,3.875,0,0,0,2.848,1.16h12.867a3.873,3.873,0,0,0,2.848-1.16,3.792,3.792,0,0,0,1.16-2.778V133.6h2.208v2.039a3.792,3.792,0,0,0,1.16,2.778,3.875,3.875,0,0,0,2.848,1.16h12.867a3.875,3.875,0,0,0,2.848-1.16,3.792,3.792,0,0,0,1.16-2.778V133.6h2.915l6.539,22.149H477.108Zm56.765,33.961H476.686V158h63.726Z" transform="translate(-466.549 -105.274)" fill="#254e6d"/>
</svg>
