<svg xmlns="http://www.w3.org/2000/svg" width="84" height="84" viewBox="0 0 84 84">
  <g id="Group_10557" data-name="Group 10557" transform="translate(-0.103 -1)">
    <rect id="Frame" width="84" height="84" transform="translate(0.103 1)" fill="#fff" opacity="0"/>
    <path id="shower-bathtub" d="M153.746,159.844l-1,4h-2l1-4a16.42,16.42,0,0,1-9-4,13.486,13.486,0,0,1-4-8l-2-11h5v-38c0-2.391,1.312-4.335,3-6s3.656-2,6-2h1a9.024,9.024,0,0,1,6,2,7.986,7.986,0,0,1,3,5h0a11.967,11.967,0,0,1,6,2c1.711.985,3,1.5,3,3v2h-18v-2c0-1.218.875-2.109,2-3s2.265-.719,4-1a6.45,6.45,0,0,0-2-4c-1.172-1.03-2.407-2-4-2h-1c-1.734,0-2.759.782-4,2s-2,2.219-2,4v38h54v1l-2,10c-.517,3.141-2.68,5.82-5,8a13.684,13.684,0,0,1-8,4l1,4h-2l-1-4Zm-13-12a11.227,11.227,0,0,0,4,7,12.623,12.623,0,0,0,8,3h30c2.858,0,4.8-1.125,7-3a10.91,10.91,0,0,0,4-7l2-9h-56Zm14-40c.211-.211.671,0,1,0,.281,0-.235-.211,0,0s1,.672,1,1v3c0,.281-.766.766-1,1s.281,1,0,1c-.329,0-.789-.764-1-1s-1-.719-1-1v-3C153.746,108.516,154.535,108.055,154.746,107.844Zm-1,9c0-.282.789-.765,1-1s.671,0,1,0c.281,0-.235-.234,0,0s1,.718,1,1v3c0,.328-.766.79-1,1s.281,0,0,0c-.329,0-.789.211-1,0s-1-.672-1-1Zm3-16a3.978,3.978,0,0,0-2,2h12a3.982,3.982,0,0,0-2-2c-1.149-.515-2.407,0-4,0S157.894,100.329,156.746,100.844Zm3,7c.21-.211.671,0,1,0s.789-.211,1,0,0,.672,0,1v3c0,.281.211.766,0,1s-.673,1-1,1-.79-.764-1-1,0-.719,0-1v-3C159.746,108.516,159.535,108.055,159.746,107.844Zm0,9c0-.282-.211-.765,0-1s.671,0,1,0,.789-.234,1,0,0,.718,0,1v3c0,.328.211.79,0,1s-.673,0-1,0-.79.211-1,0,0-.672,0-1Zm6-9c.234-.211.719,0,1,0,.328,0,.789-.211,1,0s0,.672,0,1v3c0,.281.211.766,0,1s-.672,1-1,1c-.281,0-.766-.764-1-1s0-.719,0-1v-3C165.746,108.516,165.511,108.055,165.746,107.844Zm0,8c.234-.234.719,0,1,0,.328,0,.789-.234,1,0s0,.718,0,1v3c0,.328.211.79,0,1s-.672,0-1,0c-.281,0-.766.211-1,0s0-.672,0-1v-3C165.746,116.562,165.511,116.079,165.746,115.844Z" transform="translate(-125.642 -84.844)" fill="#254e6d"/>
  </g>
</svg>
