<svg xmlns="http://www.w3.org/2000/svg" width="84" height="84" viewBox="0 0 84 84">
  <g id="Group_10558" data-name="Group 10558" transform="translate(-0.251)">
    <rect id="Frame" width="84" height="84" transform="translate(0.251)" fill="#fff" opacity="0"/>
    <path id="Path_459" data-name="Path 459" d="M257.326,91.766h2.25l.211,29.039h.844l4.711-18.282,2.179.563-4.57,17.719h2.6v25.031h10.125q0-1.055.1-2.109t.317-2.11l.562-3.3a3.18,3.18,0,0,1,3.164-2.6h3.516v-10.9H293.4v2.671h12.235v6.61h-2.25v-4.36H293.4v5.977h3.516a3.167,3.167,0,0,1,2.039.738,2.77,2.77,0,0,1,1.055,1.864l.562,3.093a25.949,25.949,0,0,1,.493,4.254q.067,2.146-.071,4.254l-1.054,11.953a3.223,3.223,0,0,1-1.055,2.039,3.1,3.1,0,0,1-2.18.844H279.967v-.492a3.729,3.729,0,0,1-.809.351,3.206,3.206,0,0,1-.949.141H250.436a3.2,3.2,0,0,1-2.356-.949,3.117,3.117,0,0,1-.949-2.285V149.141a3.237,3.237,0,0,1,.949-2.321,3.143,3.143,0,0,1,2.356-.984h.914V120.805h2.742L251.35,99.148l2.179-.351,2.883,22.008h1.125ZM279.264,154.2v-5.062a1.082,1.082,0,0,0-1.055-1.055H250.436a1.08,1.08,0,0,0-1.055,1.055V154.2Zm0,2.25H249.381v5.063a.9.9,0,0,0,.316.7,1.084,1.084,0,0,0,.739.281h27.773a1.083,1.083,0,0,0,.738-.281.9.9,0,0,0,.317-.7ZM263.3,145.836V123.055h-9.7v22.781ZM296.7,162.5a.909.909,0,0,0,.668-.246,1.151,1.151,0,0,0,.317-.6l1.054-11.883a39.349,39.349,0,0,0,.071-4.043,28.285,28.285,0,0,0-.422-3.972l-.563-3.024a.966.966,0,0,0-.316-.562.889.889,0,0,0-.6-.211H279.826a.882.882,0,0,0-.6.211.952.952,0,0,0-.317.562l-.562,3.305a16.142,16.142,0,0,0-.317,1.9,17.938,17.938,0,0,0-.1,1.9h.281a3.363,3.363,0,0,1,3.3,3.305v12.375a1.955,1.955,0,0,1-.071.527c-.047.164-.094.316-.14.457Zm-5.555-26.789v-8.648h-5.554v8.648Z" transform="translate(-234.13 -86.258)" fill="#254e6d"/>
  </g>
</svg>
