<svg id="Group_10577" data-name="Group 10577" xmlns="http://www.w3.org/2000/svg" width="84" height="84" viewBox="0 0 84 84">
  <rect id="Frame" width="84" height="84" fill="#254e6d" opacity="0"/>
  <g id="Group_10580" data-name="Group 10580" transform="translate(8 8)">
    <path id="Path_526" data-name="Path 526" d="M338.524,364.607a1.125,1.125,0,0,0-1.125,1.125v.3l-6.28-1.395a1.121,1.121,0,0,0-.245-.027,3.679,3.679,0,0,0-3.675,3.675v5.1a3.68,3.68,0,0,0,3.675,3.675,1.121,1.121,0,0,0,.245-.027l6.28-1.4v.3a1.125,1.125,0,0,0,2.25,0v-10.2A1.125,1.125,0,0,0,338.524,364.607ZM337.4,373.33l-6.631,1.473a1.427,1.427,0,0,1-1.319-1.421v-5.1a1.427,1.427,0,0,1,1.319-1.421l6.631,1.473Z" transform="translate(-271.649 -361.506)" fill="#254e6d"/>
    <path id="Path_527" data-name="Path 527" d="M338.524,381.057a1.125,1.125,0,0,0-1.125,1.125v.3l-6.28-1.395a1.121,1.121,0,0,0-.245-.027,3.679,3.679,0,0,0-3.675,3.675v5.1a3.679,3.679,0,0,0,3.675,3.674,1.122,1.122,0,0,0,.245-.026l6.28-1.4v.3a1.125,1.125,0,0,0,2.25,0v-10.2A1.125,1.125,0,0,0,338.524,381.057Zm-1.125,8.722-6.631,1.474a1.428,1.428,0,0,1-1.319-1.421v-5.1a1.427,1.427,0,0,1,1.319-1.421l6.631,1.473Z" transform="translate(-271.649 -361.506)" fill="#254e6d"/>
    <path id="Path_528" data-name="Path 528" d="M338.524,397.506a1.125,1.125,0,0,0-1.125,1.125v.3l-6.28-1.4a1.123,1.123,0,0,0-.245-.027,3.68,3.68,0,0,0-3.675,3.675v5.1a3.679,3.679,0,0,0,3.675,3.675,1.121,1.121,0,0,0,.245-.027l6.28-1.395v.3a1.125,1.125,0,0,0,2.25,0v-10.2A1.125,1.125,0,0,0,338.524,397.506Zm-1.125,8.723-6.631,1.473a1.427,1.427,0,0,1-1.319-1.421v-5.1a1.428,1.428,0,0,1,1.319-1.421l6.631,1.474Z" transform="translate(-271.649 -361.506)" fill="#254e6d"/>
    <path id="Path_529" data-name="Path 529" d="M338.524,413.956a1.125,1.125,0,0,0-1.125,1.125v.3l-6.28-1.4a1.121,1.121,0,0,0-.245-.027,3.68,3.68,0,0,0-3.675,3.675v5.1a3.68,3.68,0,0,0,3.675,3.675,1.121,1.121,0,0,0,.245-.027l6.28-1.395v.3a1.125,1.125,0,0,0,2.25,0v-10.2A1.125,1.125,0,0,0,338.524,413.956Zm-1.125,8.723-6.631,1.473a1.427,1.427,0,0,1-1.319-1.421v-5.1a1.427,1.427,0,0,1,1.319-1.421l6.631,1.473Z" transform="translate(-271.649 -361.506)" fill="#254e6d"/>
    <path id="Path_530" data-name="Path 530" d="M322.074,364.607a1.125,1.125,0,0,0-1.125,1.125v.3l-6.281-1.395a1.112,1.112,0,0,0-.244-.027,3.679,3.679,0,0,0-3.675,3.675v5.1a3.68,3.68,0,0,0,3.675,3.675,1.112,1.112,0,0,0,.244-.027l6.281-1.4v.3a1.125,1.125,0,0,0,2.25,0v-10.2A1.125,1.125,0,0,0,322.074,364.607Zm-1.125,8.723-6.631,1.473A1.426,1.426,0,0,1,313,373.382v-5.1a1.426,1.426,0,0,1,1.319-1.421l6.631,1.473Z" transform="translate(-271.649 -361.506)" fill="#254e6d"/>
    <path id="Path_531" data-name="Path 531" d="M322.074,381.057a1.125,1.125,0,0,0-1.125,1.125v.3l-6.281-1.395a1.112,1.112,0,0,0-.244-.027,3.679,3.679,0,0,0-3.675,3.675v5.1a3.679,3.679,0,0,0,3.675,3.674,1.113,1.113,0,0,0,.244-.026l6.281-1.4v.3a1.125,1.125,0,0,0,2.25,0v-10.2A1.125,1.125,0,0,0,322.074,381.057Zm-1.125,8.722-6.631,1.474A1.427,1.427,0,0,1,313,389.832v-5.1a1.426,1.426,0,0,1,1.319-1.421l6.631,1.473Z" transform="translate(-271.649 -361.506)" fill="#254e6d"/>
    <path id="Path_532" data-name="Path 532" d="M322.074,397.506a1.125,1.125,0,0,0-1.125,1.125v.3l-6.281-1.4a1.114,1.114,0,0,0-.244-.027,3.68,3.68,0,0,0-3.675,3.675v5.1a3.679,3.679,0,0,0,3.675,3.675,1.112,1.112,0,0,0,.244-.027l6.281-1.395v.3a1.125,1.125,0,0,0,2.25,0v-10.2A1.125,1.125,0,0,0,322.074,397.506Zm-1.125,8.723-6.631,1.473A1.426,1.426,0,0,1,313,406.281v-5.1a1.427,1.427,0,0,1,1.319-1.421l6.631,1.474Z" transform="translate(-271.649 -361.506)" fill="#254e6d"/>
    <path id="Path_533" data-name="Path 533" d="M322.074,413.956a1.125,1.125,0,0,0-1.125,1.125v.3l-6.281-1.4a1.112,1.112,0,0,0-.244-.027,3.68,3.68,0,0,0-3.675,3.675v5.1a3.68,3.68,0,0,0,3.675,3.675,1.112,1.112,0,0,0,.244-.027l6.281-1.395v.3a1.125,1.125,0,0,0,2.25,0v-10.2A1.125,1.125,0,0,0,322.074,413.956Zm-1.125,8.723-6.631,1.473A1.426,1.426,0,0,1,313,422.731v-5.1a1.426,1.426,0,0,1,1.319-1.421l6.631,1.473Z" transform="translate(-271.649 -361.506)" fill="#254e6d"/>
    <path id="Path_534" data-name="Path 534" d="M305.624,364.607a1.125,1.125,0,0,0-1.125,1.125v.3l-6.281-1.395a1.112,1.112,0,0,0-.244-.027,3.679,3.679,0,0,0-3.675,3.675v5.1a3.68,3.68,0,0,0,3.675,3.675,1.112,1.112,0,0,0,.244-.027l6.281-1.4v.3a1.125,1.125,0,0,0,2.25,0v-10.2A1.125,1.125,0,0,0,305.624,364.607ZM304.5,373.33l-6.631,1.473a1.426,1.426,0,0,1-1.319-1.421v-5.1a1.426,1.426,0,0,1,1.319-1.421l6.631,1.473Z" transform="translate(-271.649 -361.506)" fill="#254e6d"/>
    <path id="Path_535" data-name="Path 535" d="M305.624,381.057a1.125,1.125,0,0,0-1.125,1.125v.3l-6.281-1.395a1.112,1.112,0,0,0-.244-.027,3.679,3.679,0,0,0-3.675,3.675v5.1a3.679,3.679,0,0,0,3.675,3.674,1.113,1.113,0,0,0,.244-.026l6.281-1.4v.3a1.125,1.125,0,0,0,2.25,0v-10.2A1.125,1.125,0,0,0,305.624,381.057Zm-1.125,8.722-6.631,1.474a1.427,1.427,0,0,1-1.319-1.421v-5.1a1.426,1.426,0,0,1,1.319-1.421l6.631,1.473Z" transform="translate(-271.649 -361.506)" fill="#254e6d"/>
    <path id="Path_536" data-name="Path 536" d="M305.624,397.506a1.125,1.125,0,0,0-1.125,1.125v.3l-6.281-1.4a1.114,1.114,0,0,0-.244-.027,3.68,3.68,0,0,0-3.675,3.675v5.1a3.679,3.679,0,0,0,3.675,3.675,1.112,1.112,0,0,0,.244-.027l6.281-1.395v.3a1.125,1.125,0,0,0,2.25,0v-10.2A1.125,1.125,0,0,0,305.624,397.506Zm-1.125,8.723-6.631,1.473a1.426,1.426,0,0,1-1.319-1.421v-5.1a1.427,1.427,0,0,1,1.319-1.421l6.631,1.474Z" transform="translate(-271.649 -361.506)" fill="#254e6d"/>
    <path id="Path_537" data-name="Path 537" d="M305.624,413.956a1.125,1.125,0,0,0-1.125,1.125v.3l-6.281-1.4a1.112,1.112,0,0,0-.244-.027,3.68,3.68,0,0,0-3.675,3.675v5.1a3.68,3.68,0,0,0,3.675,3.675,1.112,1.112,0,0,0,.244-.027l6.281-1.395v.3a1.125,1.125,0,0,0,2.25,0v-10.2A1.125,1.125,0,0,0,305.624,413.956Zm-1.125,8.723-6.631,1.473a1.426,1.426,0,0,1-1.319-1.421v-5.1a1.426,1.426,0,0,1,1.319-1.421l6.631,1.473Z" transform="translate(-271.649 -361.506)" fill="#254e6d"/>
    <path id="Path_538" data-name="Path 538" d="M271.649,429.506h15v-68h-15Zm2.25-65.75h10.5v63.5H273.9Z" transform="translate(-271.649 -361.506)" fill="#254e6d"/>
  </g>
</svg>
