<svg id="Group_10573" data-name="Group 10573" xmlns="http://www.w3.org/2000/svg" width="84" height="84" viewBox="0 0 84 84">
  <rect id="Frame" width="84" height="84" fill="#254e6d" opacity="0"/>
  <g id="Group_10578" data-name="Group 10578" transform="translate(11.975 13.675)">
    <path id="Path_508" data-name="Path 508" d="M461.783,286.032h32.85v-25.45h-32.85Zm2.25-23.2h28.35v20.95h-28.35Z" transform="translate(-448.183 -244.982)" fill="#254e6d"/>
    <path id="Path_509" data-name="Path 509" d="M480.482,253.757a3.681,3.681,0,0,0,3.676,3.675h5.1a3.68,3.68,0,0,0,3.675-3.675,1.112,1.112,0,0,0-.027-.244l-1.4-6.281h.3a1.125,1.125,0,0,0,0-2.25h-10.2a1.125,1.125,0,0,0,0,2.25h.3l-1.4,6.281A1.112,1.112,0,0,0,480.482,253.757Zm3.728-6.525h5l1.473,6.631a1.428,1.428,0,0,1-1.421,1.319h-5.1a1.428,1.428,0,0,1-1.422-1.319Z" transform="translate(-448.183 -244.982)" fill="#254e6d"/>
    <path id="Path_510" data-name="Path 510" d="M463.482,253.757a3.681,3.681,0,0,0,3.676,3.675h5.1a3.68,3.68,0,0,0,3.675-3.675,1.112,1.112,0,0,0-.027-.244l-1.4-6.281h.3a1.125,1.125,0,0,0,0-2.25h-10.2a1.125,1.125,0,0,0,0,2.25h.3l-1.4,6.281A1.112,1.112,0,0,0,463.482,253.757Zm3.728-6.525H472.2l1.474,6.631a1.428,1.428,0,0,1-1.421,1.319h-5.1a1.428,1.428,0,0,1-1.422-1.319Z" transform="translate(-448.183 -244.982)" fill="#254e6d"/>
    <path id="Path_511" data-name="Path 511" d="M492.933,292.857a3.68,3.68,0,0,0-3.675-3.675h-5.1a3.681,3.681,0,0,0-3.676,3.675,1.113,1.113,0,0,0,.027.244l1.4,6.281h-.3a1.125,1.125,0,1,0,0,2.25h10.2a1.125,1.125,0,0,0,0-2.25h-.3l1.4-6.281A1.113,1.113,0,0,0,492.933,292.857Zm-3.727,6.525h-5l-1.474-6.631a1.427,1.427,0,0,1,1.422-1.319h5.1a1.427,1.427,0,0,1,1.421,1.319Z" transform="translate(-448.183 -244.982)" fill="#254e6d"/>
    <path id="Path_512" data-name="Path 512" d="M475.933,292.857a3.68,3.68,0,0,0-3.675-3.675h-5.1a3.681,3.681,0,0,0-3.676,3.675,1.113,1.113,0,0,0,.027.244l1.4,6.281h-.3a1.125,1.125,0,1,0,0,2.25h10.2a1.125,1.125,0,0,0,0-2.25h-.3l1.4-6.281A1.113,1.113,0,0,0,475.933,292.857Zm-3.728,6.525H467.21l-1.474-6.631a1.427,1.427,0,0,1,1.422-1.319h5.1a1.427,1.427,0,0,1,1.421,1.319Z" transform="translate(-448.183 -244.982)" fill="#254e6d"/>
    <path id="Path_513" data-name="Path 513" d="M507.108,267.064a1.125,1.125,0,0,0-1.125,1.125v.3l-6.281-1.4a1.112,1.112,0,0,0-.244-.027,3.68,3.68,0,0,0-3.675,3.675v5.1a3.68,3.68,0,0,0,3.675,3.676,1.112,1.112,0,0,0,.244-.027l6.281-1.4v.3a1.125,1.125,0,0,0,2.25,0v-10.2A1.125,1.125,0,0,0,507.108,267.064Zm-1.125,8.723-6.631,1.474a1.426,1.426,0,0,1-1.319-1.422v-5.1a1.427,1.427,0,0,1,1.319-1.421l6.631,1.474Z" transform="translate(-448.183 -244.982)" fill="#254e6d"/>
    <path id="Path_514" data-name="Path 514" d="M456.958,267.064a1.113,1.113,0,0,0-.244.027l-6.281,1.4v-.3a1.125,1.125,0,0,0-2.25,0v10.2a1.125,1.125,0,0,0,2.25,0v-.3l6.281,1.4a1.113,1.113,0,0,0,.244.027,3.68,3.68,0,0,0,3.675-3.676v-5.1A3.68,3.68,0,0,0,456.958,267.064Zm1.425,8.775a1.426,1.426,0,0,1-1.319,1.422l-6.631-1.474v-4.995l6.631-1.474a1.427,1.427,0,0,1,1.319,1.421Z" transform="translate(-448.183 -244.982)" fill="#254e6d"/>
  </g>
</svg>
