<svg id="Group_10575" data-name="Group 10575" xmlns="http://www.w3.org/2000/svg" width="84" height="84" viewBox="0 0 84 84">
  <rect id="Frame" width="84" height="84" fill="#fff" opacity="0"/>
  <g id="Group_10579" data-name="Group 10579" transform="translate(6.962 6.875)">
    <path id="Path_515" data-name="Path 515" d="M257.2,253.182a20.125,20.125,0,1,0,20.125,20.125A20.147,20.147,0,0,0,257.2,253.182Zm0,38a17.875,17.875,0,1,1,17.875-17.875A17.9,17.9,0,0,1,257.2,291.182Z" transform="translate(-222.163 -238.182)" fill="#254e6d"/>
    <path id="Path_516" data-name="Path 516" d="M250.975,246.957a3.68,3.68,0,0,0,3.675,3.675h5.1a3.68,3.68,0,0,0,3.675-3.675,1.123,1.123,0,0,0-.027-.245l-1.4-6.28h.3a1.125,1.125,0,0,0,0-2.25H252.1a1.125,1.125,0,0,0,0,2.25h.3l-1.4,6.28A1.121,1.121,0,0,0,250.975,246.957Zm3.727-6.525h5l1.473,6.631a1.427,1.427,0,0,1-1.421,1.319h-5.1a1.427,1.427,0,0,1-1.421-1.319Z" transform="translate(-222.163 -238.182)" fill="#254e6d"/>
    <path id="Path_517" data-name="Path 517" d="M233.751,249.708l.24-.175,2.563,5.9a1.048,1.048,0,0,0,.122.213,3.679,3.679,0,0,0,5.133.813l4.126-3a3.681,3.681,0,0,0,.813-5.134,1.192,1.192,0,0,0-.166-.182l-4.82-4.261.24-.174a1.125,1.125,0,0,0-1.322-1.821l-1.375,1-5.5,4-1.375,1a1.125,1.125,0,1,0,1.323,1.82Zm6.146-4.466,5.09,4.5a1.426,1.426,0,0,1-.375,1.9l-4.126,3a1.427,1.427,0,0,1-1.925-.232l-2.705-6.231Z" transform="translate(-222.163 -238.182)" fill="#254e6d"/>
    <path id="Path_518" data-name="Path 518" d="M222.94,268.72a1.125,1.125,0,0,0,1.418-.722l.092-.283,5.542,3.268a1.1,1.1,0,0,0,.224.1,3.679,3.679,0,0,0,4.631-2.359l1.576-4.85a3.68,3.68,0,0,0-2.36-4.631,1.164,1.164,0,0,0-.24-.05l-6.4-.614.092-.282a1.125,1.125,0,0,0-2.14-.7l-.525,1.617-2.1,6.467-.525,1.617A1.125,1.125,0,0,0,222.94,268.72Zm3.766-7.948,6.761.648a1.427,1.427,0,0,1,.816,1.759l-1.576,4.851a1.426,1.426,0,0,1-1.694.943l-5.851-3.45Z" transform="translate(-222.163 -238.182)" fill="#254e6d"/>
    <path id="Path_519" data-name="Path 519" d="M227.418,288.033l6.4-.613a1.166,1.166,0,0,0,.24-.05,3.68,3.68,0,0,0,2.36-4.631l-1.576-4.851a3.68,3.68,0,0,0-4.631-2.359,1.156,1.156,0,0,0-.224.1L224.45,278.9l-.092-.282a1.125,1.125,0,1,0-2.14.7l.525,1.616,2.1,6.468.525,1.616a1.125,1.125,0,1,0,2.14-.695Zm-.712-2.192-1.544-4.751,5.851-3.45a1.426,1.426,0,0,1,1.694.944l1.576,4.85a1.426,1.426,0,0,1-.816,1.759Z" transform="translate(-222.163 -238.182)" fill="#254e6d"/>
    <path id="Path_520" data-name="Path 520" d="M245.935,293.15l-4.126-3a3.679,3.679,0,0,0-5.133.814,1.1,1.1,0,0,0-.122.213l-2.563,5.9-.24-.175a1.125,1.125,0,1,0-1.323,1.82l1.375,1,5.5,4,1.375,1A1.125,1.125,0,0,0,242,302.9l-.24-.175,4.821-4.261a1.1,1.1,0,0,0,.165-.182A3.679,3.679,0,0,0,245.935,293.15Zm-.948,3.723-5.09,4.5-4.041-2.936,2.705-6.23a1.428,1.428,0,0,1,1.926-.232l4.126,3A1.428,1.428,0,0,1,244.987,296.873Z" transform="translate(-222.163 -238.182)" fill="#254e6d"/>
    <path id="Path_521" data-name="Path 521" d="M263.425,299.657a3.68,3.68,0,0,0-3.675-3.675h-5.1a3.68,3.68,0,0,0-3.675,3.675,1.112,1.112,0,0,0,.027.244l1.4,6.281h-.3a1.125,1.125,0,0,0,0,2.25h10.2a1.125,1.125,0,0,0,0-2.25H262l1.4-6.281A1.114,1.114,0,0,0,263.425,299.657Zm-3.727,6.525h-5l-1.473-6.631a1.426,1.426,0,0,1,1.421-1.319h5.1a1.426,1.426,0,0,1,1.421,1.319Z" transform="translate(-222.163 -238.182)" fill="#254e6d"/>
    <path id="Path_522" data-name="Path 522" d="M280.649,296.906l-.24.174-2.563-5.9a1.049,1.049,0,0,0-.122-.213,3.679,3.679,0,0,0-5.133-.814l-4.126,3a3.679,3.679,0,0,0-.813,5.133,1.1,1.1,0,0,0,.166.182l4.82,4.261-.24.175a1.125,1.125,0,1,0,1.322,1.82l1.375-1,5.5-4,1.375-1a1.125,1.125,0,1,0-1.323-1.82Zm-6.146,4.465-5.09-4.5a1.427,1.427,0,0,1,.375-1.9l4.126-3a1.426,1.426,0,0,1,1.925.232l2.705,6.23Z" transform="translate(-222.163 -238.182)" fill="#254e6d"/>
    <path id="Path_523" data-name="Path 523" d="M291.46,277.893a1.126,1.126,0,0,0-1.418.722l-.092.283-5.542-3.268a1.156,1.156,0,0,0-.224-.1,3.679,3.679,0,0,0-4.631,2.359l-1.576,4.851a3.68,3.68,0,0,0,2.36,4.631,1.1,1.1,0,0,0,.24.049l6.4.614-.092.283a1.125,1.125,0,1,0,2.14.695l.525-1.616,2.1-6.468.525-1.616A1.126,1.126,0,0,0,291.46,277.893Zm-3.766,7.948-6.761-.648a1.427,1.427,0,0,1-.816-1.759l1.576-4.85a1.426,1.426,0,0,1,1.694-.944l5.851,3.45Z" transform="translate(-222.163 -238.182)" fill="#254e6d"/>
    <path id="Path_524" data-name="Path 524" d="M286.982,258.58l-6.4.614a1.164,1.164,0,0,0-.24.05,3.68,3.68,0,0,0-2.36,4.631l1.576,4.85a3.679,3.679,0,0,0,4.631,2.359,1.1,1.1,0,0,0,.224-.1l5.542-3.268.092.283a1.125,1.125,0,0,0,2.14-.695l-.525-1.617-2.1-6.467-.525-1.617a1.125,1.125,0,0,0-2.14.7Zm.712,2.192,1.544,4.751-5.851,3.45a1.426,1.426,0,0,1-1.694-.943l-1.576-4.851a1.427,1.427,0,0,1,.816-1.759Z" transform="translate(-222.163 -238.182)" fill="#254e6d"/>
    <path id="Path_525" data-name="Path 525" d="M268.465,253.463l4.126,3a3.679,3.679,0,0,0,5.133-.813,1.129,1.129,0,0,0,.122-.213l2.563-5.9.24.175a1.125,1.125,0,1,0,1.323-1.82l-1.375-1-5.5-4-1.375-1a1.125,1.125,0,0,0-1.322,1.821l.24.174-4.821,4.261a1.187,1.187,0,0,0-.165.182A3.679,3.679,0,0,0,268.465,253.463Zm.948-3.722,5.09-4.5,4.041,2.936-2.705,6.231a1.427,1.427,0,0,1-1.925.232l-4.127-3A1.427,1.427,0,0,1,269.413,249.741Z" transform="translate(-222.163 -238.182)" fill="#254e6d"/>
  </g>
</svg>
