<svg xmlns="http://www.w3.org/2000/svg" width="134.608" height="857.092" viewBox="0 0 134.608 857.092">
  <path id="Path_457" data-name="Path 457" d="M-425.35,0a1.662,1.662,0,0,1-1.88-1.88V-129.72a1.662,1.662,0,0,1,1.88-1.88h30.832q15.6,0,24.816,9.588t9.212,25.944v60.536q0,16.356-9.212,25.944T-394.518,0Zm16.168-16.356a.665.665,0,0,0,.752.752l13.724-.188a13.821,13.821,0,0,0,11.468-5.546q4.324-5.546,4.512-15.134V-95.128q0-9.588-4.324-15.228A13.923,13.923,0,0,0-394.706-116H-408.43a.665.665,0,0,0-.752.752ZM-280.778,0a1.662,1.662,0,0,1-1.88-1.88V-129.72a1.662,1.662,0,0,1,1.88-1.88h14.288a1.662,1.662,0,0,1,1.88,1.88V-1.88A1.662,1.662,0,0,1-266.49,0Zm148.9-129.72A1.662,1.662,0,0,1-130-131.6h14.1a1.662,1.662,0,0,1,1.88,1.88V-1.88A1.662,1.662,0,0,1-115.9,0H-132.07a2.068,2.068,0,0,1-2.068-1.5L-166.1-87.42a.457.457,0,0,0-.564-.282.444.444,0,0,0-.376.47l.188,85.352A1.662,1.662,0,0,1-168.73,0h-14.288a1.662,1.662,0,0,1-1.88-1.88V-129.72a1.662,1.662,0,0,1,1.88-1.88h15.98a2.068,2.068,0,0,1,2.068,1.5l32.148,85.916q.188.564.564.47t.376-.658Zm150.588,0a1.662,1.662,0,0,1,1.88-1.88h14.1a1.662,1.662,0,0,1,1.88,1.88V-1.88A1.662,1.662,0,0,1,34.686,0H18.518A2.068,2.068,0,0,1,16.45-1.5L-15.51-87.42a.457.457,0,0,0-.564-.282.444.444,0,0,0-.376.47l.188,85.352A1.662,1.662,0,0,1-18.142,0H-32.43a1.662,1.662,0,0,1-1.88-1.88V-129.72a1.662,1.662,0,0,1,1.88-1.88h15.98a2.068,2.068,0,0,1,2.068,1.5L17.766-44.18q.188.564.564.47t.376-.658ZM118.158,0a1.662,1.662,0,0,1-1.88-1.88V-129.72a1.662,1.662,0,0,1,1.88-1.88h14.288a1.662,1.662,0,0,1,1.88,1.88V-1.88A1.662,1.662,0,0,1,132.446,0Zm148.9-129.72a1.662,1.662,0,0,1,1.88-1.88h14.1a1.662,1.662,0,0,1,1.88,1.88V-1.88A1.662,1.662,0,0,1,283.034,0H266.866A2.068,2.068,0,0,1,264.8-1.5L232.838-87.42a.457.457,0,0,0-.564-.282.444.444,0,0,0-.376.47l.188,85.352A1.662,1.662,0,0,1,230.206,0H215.918a1.662,1.662,0,0,1-1.88-1.88V-129.72a1.662,1.662,0,0,1,1.88-1.88H231.9a2.068,2.068,0,0,1,2.068,1.5L266.114-44.18q.188.564.564.47t.376-.658ZM395.834,1.5Q380.606,1.5,371.3-7.52T361.994-31.4V-100.2q0-14.852,9.306-23.876t24.534-9.024q15.228,0,24.628,9.024t9.4,24.064v7.9a1.662,1.662,0,0,1-1.88,1.88H413.694a1.662,1.662,0,0,1-1.88-1.88v-8.272q0-7.708-4.418-12.408a15.136,15.136,0,0,0-11.562-4.7,15.136,15.136,0,0,0-11.562,4.7q-4.418,4.7-4.418,12.408v69.184q0,7.708,4.418,12.408a15.136,15.136,0,0,0,11.562,4.7A15.136,15.136,0,0,0,407.4-18.8q4.418-4.7,4.418-12.408v-20.68a.665.665,0,0,0-.752-.752H396.774a1.662,1.662,0,0,1-1.88-1.88V-66.176a1.662,1.662,0,0,1,1.88-1.88h31.208a1.662,1.662,0,0,1,1.88,1.88V-31.4q0,14.852-9.4,23.876T395.834,1.5Z" transform="translate(133.104 429.862) rotate(-90)" fill="#fbdad4"/>
</svg>
