<svg xmlns="http://www.w3.org/2000/svg" width="134.608" height="1023.096" viewBox="0 0 134.608 1023.096">
  <path id="Path_479" data-name="Path 479" d="M-450.354-130.284A2.44,2.44,0,0,1-448.1-131.6h14.288a1.662,1.662,0,0,1,1.88,1.88V-1.88A1.662,1.662,0,0,1-433.81,0H-448.1a1.662,1.662,0,0,1-1.88-1.88V-95.128q0-.564-.282-.564a1.031,1.031,0,0,0-.658.376l-18.048,33.652a1.822,1.822,0,0,1-1.692,1.316,1.822,1.822,0,0,1-1.692-1.316l-17.86-33.464a1.031,1.031,0,0,0-.658-.376q-.282,0-.282.564V-1.88A1.662,1.662,0,0,1-493.03,0h-14.288a1.662,1.662,0,0,1-1.88-1.88V-129.72a1.662,1.662,0,0,1,1.88-1.88h14.288a2.728,2.728,0,0,1,2.256,1.316l19.74,35.344a.766.766,0,0,0,.564.188.766.766,0,0,0,.564-.188ZM-289.8-117.876a1.662,1.662,0,0,1-1.88,1.88h-42.3a.665.665,0,0,0-.752.752v40.8a.665.665,0,0,0,.752.752h25.944a1.662,1.662,0,0,1,1.88,1.88v11.844a1.662,1.662,0,0,1-1.88,1.88h-25.944a.665.665,0,0,0-.752.752v40.984a.665.665,0,0,0,.752.752h42.3a1.662,1.662,0,0,1,1.88,1.88V-1.88A1.662,1.662,0,0,1-291.682,0H-350.9a1.662,1.662,0,0,1-1.88-1.88V-129.72a1.662,1.662,0,0,1,1.88-1.88h59.22a1.662,1.662,0,0,1,1.88,1.88Zm137.616,0a1.662,1.662,0,0,1-1.88,1.88h-42.3a.665.665,0,0,0-.752.752v40.8a.665.665,0,0,0,.752.752h25.944a1.662,1.662,0,0,1,1.88,1.88v11.844a1.662,1.662,0,0,1-1.88,1.88h-25.944a.665.665,0,0,0-.752.752v40.984a.665.665,0,0,0,.752.752h42.3a1.662,1.662,0,0,1,1.88,1.88V-1.88A1.662,1.662,0,0,1-154.066,0h-59.22a1.662,1.662,0,0,1-1.88-1.88V-129.72a1.662,1.662,0,0,1,1.88-1.88h59.22a1.662,1.662,0,0,1,1.88,1.88ZM-14.194-131.6a1.662,1.662,0,0,1,1.88,1.88v11.844a1.662,1.662,0,0,1-1.88,1.88H-38.822a.665.665,0,0,0-.752.752V-1.88A1.662,1.662,0,0,1-41.454,0H-55.742a1.662,1.662,0,0,1-1.88-1.88V-115.244a.665.665,0,0,0-.752-.752H-81.686a1.662,1.662,0,0,1-1.88-1.88V-129.72a1.662,1.662,0,0,1,1.88-1.88ZM63.262,0a1.662,1.662,0,0,1-1.88-1.88V-129.72a1.662,1.662,0,0,1,1.88-1.88H77.55a1.662,1.662,0,0,1,1.88,1.88V-1.88A1.662,1.662,0,0,1,77.55,0Zm148.9-129.72a1.662,1.662,0,0,1,1.88-1.88h14.1a1.662,1.662,0,0,1,1.88,1.88V-1.88A1.662,1.662,0,0,1,228.138,0H211.97A2.068,2.068,0,0,1,209.9-1.5L177.942-87.42a.457.457,0,0,0-.564-.282.444.444,0,0,0-.376.47L177.19-1.88A1.662,1.662,0,0,1,175.31,0H161.022a1.662,1.662,0,0,1-1.88-1.88V-129.72a1.662,1.662,0,0,1,1.88-1.88H177a2.068,2.068,0,0,1,2.068,1.5L211.218-44.18q.188.564.564.47t.376-.658ZM340.938,1.5Q325.71,1.5,316.4-7.52T307.1-31.4V-100.2q0-14.852,9.306-23.876t24.534-9.024q15.228,0,24.628,9.024t9.4,24.064v7.9a1.662,1.662,0,0,1-1.88,1.88H358.8a1.662,1.662,0,0,1-1.88-1.88v-8.272q0-7.708-4.418-12.408a15.136,15.136,0,0,0-11.562-4.7,15.136,15.136,0,0,0-11.562,4.7q-4.418,4.7-4.418,12.408v69.184q0,7.708,4.418,12.408a15.136,15.136,0,0,0,11.562,4.7A15.136,15.136,0,0,0,352.5-18.8q4.418-4.7,4.418-12.408v-20.68a.665.665,0,0,0-.752-.752H341.878A1.662,1.662,0,0,1,340-54.52V-66.176a1.662,1.662,0,0,1,1.88-1.88h31.208a1.662,1.662,0,0,1,1.88,1.88V-31.4q0,14.852-9.4,23.876T340.938,1.5Zm139.684,0q-14.852,0-23.97-9.306t-9.118-24.346v-4.888a1.662,1.662,0,0,1,1.88-1.88h13.912a1.662,1.662,0,0,1,1.88,1.88v3.948q0,8.648,4.324,13.818a13.809,13.809,0,0,0,11.092,5.17,14.3,14.3,0,0,0,11.186-4.982q4.418-4.982,4.418-13.066a19.072,19.072,0,0,0-2.35-9.588,27.8,27.8,0,0,0-6.2-7.426q-3.854-3.29-12.5-9.682a184.77,184.77,0,0,1-15.04-12.22,45.412,45.412,0,0,1-9.212-12.22,35.43,35.43,0,0,1-3.76-16.732q0-15.228,9.024-24.158t23.5-8.93q15.04,0,24.158,9.588t9.118,25.192v4.7a1.662,1.662,0,0,1-1.88,1.88H497.166a1.662,1.662,0,0,1-1.88-1.88V-98.7q0-8.46-4.324-13.63a14,14,0,0,0-11.28-5.17,13.735,13.735,0,0,0-10.716,4.606q-4.136,4.606-4.136,12.878a19.671,19.671,0,0,0,4.136,12.69q4.136,5.17,15.98,13.818,11.28,8.46,17.014,13.724A39.252,39.252,0,0,1,510.8-48.222a33.489,33.489,0,0,1,3.1,14.946q0,15.792-9.212,25.286T480.622,1.5Z" transform="translate(133.104 513.898) rotate(-90)" fill="#fbdad4"/>
</svg>
