<svg xmlns="http://www.w3.org/2000/svg" width="565.442" height="760.585" viewBox="0 0 565.442 760.585"><defs><style>.a{opacity:0.5;}.b{opacity:0.34;isolation:isolate;}.c{fill:none;stroke:#fef3f1;stroke-miterlimit:10;}</style></defs><g class="a" transform="translate(-253.372 31.698)"><g transform="translate(295.065 -31.613)"><g class="b"><path class="c" d="M782.35-31.613S750.984,149.934,702.564,160.48C668.39,167.924,653.536,56.5,622.592,63.219c-40.346,8.762-63.453,461.609-147.249,461.609C378.459,524.827,289-31.613,289-31.613" transform="translate(-289.004 31.613)"/></g></g><g transform="translate(253.871 -31.613)"><g class="b"><path class="c" d="M829.463-12.484S773.2,458.993,711.145,458.993c-41.144,0-41.12-196.733-81.727-197.409-51.7-.861-79.454,485.932-184.381,485.932-121.317,0-180.022-760-180.022-760" transform="translate(-265.016 12.484)"/></g></g></g></svg>