<svg xmlns="http://www.w3.org/2000/svg" width="520.88" height="700.585" viewBox="0 0 520.88 700.585"><defs><style>.a{opacity:0.5;}.b{opacity:0.34;isolation:isolate;}.c{fill:none;stroke:#fef3f1;stroke-miterlimit:10;}</style></defs><g class="a" transform="translate(-253.372 31.698)"><g transform="translate(291.813 -31.613)"><g class="b"><path class="c" d="M743.4-31.613S714.512,135.6,669.914,145.315c-31.475,6.856-45.156-95.773-73.658-89.583C559.1,63.8,537.813,480.9,460.632,480.9,371.4,480.9,289-31.613,289-31.613" transform="translate(-289.004 31.613)"/></g></g><g transform="translate(253.871 -31.613)"><g class="b"><path class="c" d="M784.9-12.484S733.078,421.771,675.925,421.771c-37.9,0-37.873-181.2-75.275-181.824-47.614-.793-73.181,447.569-169.824,447.569-111.739,0-165.81-700-165.81-700" transform="translate(-265.016 12.484)"/></g></g></g></svg>