<svg xmlns="http://www.w3.org/2000/svg" width="84" height="84" viewBox="0 0 84 84">
  <g id="Group_10560" data-name="Group 10560" transform="translate(-0.251)">
    <rect id="Frame" width="84" height="84" transform="translate(0.251)" fill="#fff" opacity="0"/>
    <path id="Path_474" data-name="Path 474" d="M247.412,495.865a1.082,1.082,0,0,1-1.125,1.125,1.13,1.13,0,0,1-.773-.316,1.035,1.035,0,0,1-.352-.809V467.67a7.039,7.039,0,0,1-4.254-2.391,6.811,6.811,0,0,1-1.722-4.64v-7.594a1.136,1.136,0,0,1,.316-.774,1.107,1.107,0,0,1,1.617,0,1.137,1.137,0,0,1,.317.774v7.594a4.626,4.626,0,0,0,1.441,3.445,4.715,4.715,0,0,0,3.41,1.406,4.8,4.8,0,0,0,3.481-1.406,4.63,4.63,0,0,0,1.441-3.445v-7.594a1.136,1.136,0,0,1,.316-.774,1.04,1.04,0,0,1,.809-.351,1.21,1.21,0,0,1,1.125,1.125v7.594a6.817,6.817,0,0,1-1.723,4.64,7.083,7.083,0,0,1-4.324,2.391Zm-2.25-42.82a1.21,1.21,0,0,1,1.125-1.125,1.043,1.043,0,0,1,.809.351,1.136,1.136,0,0,1,.316.774v9.562a1.082,1.082,0,0,1-1.125,1.125,1.13,1.13,0,0,1-.773-.316,1.034,1.034,0,0,1-.352-.809Zm53.649,20.883a21.308,21.308,0,0,1-1.758,8.648,22.268,22.268,0,0,1-4.817,7.1,22.042,22.042,0,0,1-7.136,4.711,22.512,22.512,0,0,1-17.438,0,22.025,22.025,0,0,1-7.137-4.711,22.249,22.249,0,0,1-4.816-7.1,22.152,22.152,0,0,1,0-17.3,22.267,22.267,0,0,1,4.816-7.1,22.024,22.024,0,0,1,7.137-4.711,22.5,22.5,0,0,1,17.438,0,22.041,22.041,0,0,1,7.136,4.711,22.286,22.286,0,0,1,4.817,7.1A21.309,21.309,0,0,1,298.811,473.928Zm-2.25,0a19.082,19.082,0,0,0-1.618-7.805,20.077,20.077,0,0,0-10.687-10.617,20.365,20.365,0,0,0-7.875-1.547,19.965,19.965,0,0,0-14.274,5.836,21.179,21.179,0,0,0-4.359,6.328,20.46,20.46,0,0,0,0,15.609,21.2,21.2,0,0,0,4.359,6.329,19.958,19.958,0,0,0,14.274,5.835,20.345,20.345,0,0,0,7.875-1.546,19.953,19.953,0,0,0,6.4-4.289,20.166,20.166,0,0,0,4.289-6.329A19.071,19.071,0,0,0,296.561,473.928Zm-5.907,0a13.364,13.364,0,0,1-1.125,5.484,14.464,14.464,0,0,1-3.058,4.535,13.551,13.551,0,0,1-4.535,2.989,14.277,14.277,0,0,1-11.11,0,13.531,13.531,0,0,1-4.535-2.989,14.433,14.433,0,0,1-3.059-4.535,13.931,13.931,0,0,1,0-10.969,14.456,14.456,0,0,1,3.059-4.535,13.528,13.528,0,0,1,4.535-2.988,14.277,14.277,0,0,1,11.11,0,13.548,13.548,0,0,1,4.535,2.988,14.487,14.487,0,0,1,3.058,4.535A13.369,13.369,0,0,1,290.654,473.928Zm-2.25,0a11.4,11.4,0,0,0-3.515-8.4,12.14,12.14,0,0,0-17.016,0,11.8,11.8,0,0,0,0,16.8,12.138,12.138,0,0,0,17.016,0A11.393,11.393,0,0,0,288.4,473.928Zm15.645,22.746a1.1,1.1,0,0,1-.809.316,1.13,1.13,0,0,1-.773-.316,1.035,1.035,0,0,1-.352-.809V453.186a1.681,1.681,0,0,1,1.512-1.793,1.642,1.642,0,0,1,2.074,1.089q1.478,3.445,2.672,7.032a61.365,61.365,0,0,1,1.793,7.207,50.857,50.857,0,0,1,.809,7.207,39.582,39.582,0,0,1-.352,7.1,6.781,6.781,0,0,1-.457,1.125,4.023,4.023,0,0,1-.949,1.2,5.343,5.343,0,0,1-2,1.441,9.235,9.235,0,0,1-2.848.668v10.406A1.1,1.1,0,0,1,304.049,496.674Zm4.148-15.539a1.157,1.157,0,0,0,.176-.457,35.015,35.015,0,0,0,.422-6.258,55.221,55.221,0,0,0-.668-6.469,49.829,49.829,0,0,0-1.512-6.469,50.974,50.974,0,0,0-2.25-6.328v27.985a5.715,5.715,0,0,0,1.934-.422,4.405,4.405,0,0,0,1.371-.914A3.13,3.13,0,0,0,308.2,481.135Z" transform="translate(-232.935 -432.335)" fill="#254e6d"/>
  </g>
</svg>
