<svg id="Group_10559" data-name="Group 10559" xmlns="http://www.w3.org/2000/svg" width="84" height="84" viewBox="0 0 84 84">
  <rect id="Frame" width="84" height="84" fill="#fff" opacity="0"/>
  <path id="Path_487" data-name="Path 487" d="M176.32,181.059H128.648V133.528l22.078-22.219H198.4V158.77Zm-45.773-.351L129,179.161l4.148-4.219,1.617,1.617Zm44.226-45.774h-45v-2.25h47.25v47.25h-2.25Zm21.375,22.922v-44.3H151.64L130.9,134.442v44.367h44.508Zm-58.781,16.1-1.617-1.618,4.148-4.148,1.617,1.617Zm6.75-6.75L142.5,165.59l4.148-4.148,1.617,1.617Zm5.133-8.368,1.125-1.054,1.547,1.547-1.055,1.125Zm.773-46.406h2.25v6.961h-2.25Zm0,11.32h2.25v6.961h-2.25Zm0,11.321h2.25v6.961h-2.25Zm0,11.32h2.25v6.961h-2.25Zm0,11.32h2.25v.844h-2.25Zm1.125,1.969v-2.25h6.961v2.25Zm11.32-2.25H169.5v2.25h-7.032Zm11.391,2.25v-2.25h6.961v2.25Zm2.813-25.1-1.547-1.547L196.5,111.661l1.547,1.547Zm8.507,22.851h6.961v2.25h-6.961Zm11.391,2.25v-2.25h.7v2.25Z" transform="translate(-121.523 -104.184)" fill="#254e6d"/>
</svg>
