<svg xmlns="http://www.w3.org/2000/svg" width="84" height="84" viewBox="0 0 84 84">
  <g id="Group_10558" data-name="Group 10558" transform="translate(-0.251)">
    <rect id="Frame" width="84" height="84" transform="translate(0.251)" fill="#fff" opacity="0"/>
    <path id="Path_465" data-name="Path 465" d="M692.561,323.065v6.75H680.186v-6.75h-7.875a1.082,1.082,0,0,1-1.125-1.125V265.69a1.083,1.083,0,0,1,1.125-1.125h69.75a1.085,1.085,0,0,1,1.125,1.125v56.25a1.083,1.083,0,0,1-1.125,1.125h-7.875v6.75H721.811v-6.75Zm-19.125-2.25h67.5v-54h-67.5Zm3.8-36.984v-2.25h4.079v-8.016h52.875v40.5H681.311V306.05h-4.079V303.8h4.079V283.831Zm5.2,39.234v4.5h7.875v-4.5Zm49.5-11.25v-36H683.561v36Zm-6.188-17.437a11.764,11.764,0,1,1-3.445-8.367A11.392,11.392,0,0,1,725.748,294.378Zm-2.25,0a9.6,9.6,0,1,0-2.812,6.75A9.209,9.209,0,0,0,723.5,294.378Zm.563,28.687v4.5h7.875v-4.5Z" transform="translate(-664.935 -255.19)" fill="#254e6d"/>
  </g>
</svg>
