<svg xmlns="http://www.w3.org/2000/svg" width="84" height="84" viewBox="0 0 84 84">
  <g id="Group_10559" data-name="Group 10559" transform="translate(-0.251)">
    <rect id="Frame" width="84" height="84" transform="translate(0.251)" fill="#fff" opacity="0"/>
    <path id="Path_460" data-name="Path 460" d="M357.592,98.516a7.563,7.563,0,0,1,7.594-7.594h35.367a7.561,7.561,0,0,1,7.593,7.594v40.007h6.75V157.3a7.561,7.561,0,0,1-7.593,7.594H358.436a7.563,7.563,0,0,1-7.594-7.594V138.523h6.75Zm55.054,44.507v-2.25H353.092v2.25Zm-47.953,2.25h-11.6V157.3a5.2,5.2,0,0,0,1.547,3.762,5.1,5.1,0,0,0,3.8,1.582h6.257Zm17.016-36.14V93.172H365.186a5.283,5.283,0,0,0-5.344,5.344v10.617Zm-21.867,29.39h21.867v-27.14H359.842Zm21.867,6.75H366.943v17.368h14.766Zm-5.063-19.757h2.25v5.554h-2.25Zm29.25-27a5.1,5.1,0,0,0-1.582-3.8,5.2,5.2,0,0,0-3.761-1.547H383.959v15.961H405.9Zm0,12.867H383.959v27.14H405.9Zm-7.1,33.89H383.959v17.368H398.8Zm-11.953-19.757h2.25v5.554h-2.25ZM407.3,162.641a5.108,5.108,0,0,0,3.8-1.582,5.2,5.2,0,0,0,1.546-3.762V145.273h-11.6v17.368Z" transform="translate(-340.618 -85.907)" fill="#254e6d"/>
  </g>
</svg>
