<svg id="Group_10560" data-name="Group 10560" xmlns="http://www.w3.org/2000/svg" width="84" height="84" viewBox="0 0 84 84">
  <rect id="Frame" width="84" height="84" fill="#fff" opacity="0"/>
  <path id="Path_488" data-name="Path 488" d="M715.182,176.383a6.373,6.373,0,0,1-1.934,4.676,6.29,6.29,0,0,1-4.6,1.934H697.885a6.257,6.257,0,0,1-4.641-1.934,6.434,6.434,0,0,1-1.9-4.676V176.1h-1.688a7.443,7.443,0,0,1-7.453-7.453v-42.82a7.441,7.441,0,0,1,7.453-7.453h1.688v-.282a6.483,6.483,0,0,1,6.539-6.539h10.758a6.347,6.347,0,0,1,4.6,1.9,6.253,6.253,0,0,1,1.934,4.64v.282h32.554a7.3,7.3,0,0,1,5.309,2.179,7.128,7.128,0,0,1,2.215,5.274v42.82a7.121,7.121,0,0,1-2.215,5.273,7.3,7.3,0,0,1-5.309,2.18H715.182Zm-25.524-55.757a5.161,5.161,0,0,0-5.2,5.2v42.82a5.163,5.163,0,0,0,5.2,5.2h1.688V120.626Zm18.985,60.117a4.127,4.127,0,0,0,3.023-1.266,4.207,4.207,0,0,0,1.266-3.094V118.094a4.323,4.323,0,0,0-4.289-4.289H697.885a4.321,4.321,0,0,0-4.289,4.289v58.289a4.21,4.21,0,0,0,1.265,3.094,4.127,4.127,0,0,0,3.024,1.266Zm39.093-6.891a5.136,5.136,0,0,0,3.727-1.512,4.966,4.966,0,0,0,1.547-3.691v-42.82a4.973,4.973,0,0,0-1.547-3.692,5.143,5.143,0,0,0-3.727-1.511H715.182v53.226Zm-26.015-27V126.813h24.117v20.039Zm21.867-2.25V129.063H723.971V144.6Zm-15.68,8.016a1.8,1.8,0,0,1-1.828,1.828,1.683,1.683,0,0,1-1.23-.528,1.763,1.763,0,0,1-.528-1.3,1.8,1.8,0,0,1,1.758-1.758,1.77,1.77,0,0,1,1.3.527A1.688,1.688,0,0,1,727.908,152.618Zm0,7.1a1.649,1.649,0,0,1-.527,1.266,1.835,1.835,0,0,1-1.3.492,1.745,1.745,0,0,1-1.23-.492,1.781,1.781,0,0,1,0-2.531,1.746,1.746,0,0,1,1.23-.493,1.836,1.836,0,0,1,1.3.493A1.651,1.651,0,0,1,727.908,159.719Zm0,7.1a1.682,1.682,0,0,1-.527,1.23,1.767,1.767,0,0,1-1.3.528,1.8,1.8,0,0,1-1.758-1.758,1.768,1.768,0,0,1,.528-1.3,1.682,1.682,0,0,1,1.23-.527,1.8,1.8,0,0,1,1.828,1.828Zm-2.25-14.2a.564.564,0,0,0,.106.351.367.367,0,0,0,.316.141.48.48,0,0,0,.492-.492.411.411,0,0,0-.14-.282.482.482,0,0,0-.352-.14.371.371,0,0,0-.316.14A.468.468,0,0,0,725.658,152.618Zm0,7.1a.565.565,0,0,0,.106.352.366.366,0,0,0,.316.14.479.479,0,0,0,.492-.492.48.48,0,0,0-.492-.492.37.37,0,0,0-.316.141A.566.566,0,0,0,725.658,159.719Zm0,7.1a.459.459,0,0,0,.106.281.367.367,0,0,0,.316.141.475.475,0,0,0,.352-.141.4.4,0,0,0,.14-.281.479.479,0,0,0-.492-.492.372.372,0,0,0-.316.14A.569.569,0,0,0,725.658,166.821Zm9.914-14.2a1.8,1.8,0,0,1-1.828,1.828,1.683,1.683,0,0,1-1.23-.528,1.763,1.763,0,0,1-.528-1.3,1.8,1.8,0,0,1,1.758-1.758,1.77,1.77,0,0,1,1.3.527A1.688,1.688,0,0,1,735.572,152.618Zm0,7.1a1.649,1.649,0,0,1-.527,1.266,1.835,1.835,0,0,1-1.3.492,1.745,1.745,0,0,1-1.23-.492,1.781,1.781,0,0,1,0-2.531,1.746,1.746,0,0,1,1.23-.493,1.836,1.836,0,0,1,1.3.493A1.651,1.651,0,0,1,735.572,159.719Zm0,7.1a1.682,1.682,0,0,1-.527,1.23,1.767,1.767,0,0,1-1.3.528,1.8,1.8,0,0,1-1.758-1.758,1.768,1.768,0,0,1,.528-1.3,1.682,1.682,0,0,1,1.23-.527,1.8,1.8,0,0,1,1.828,1.828Zm-2.25-14.2a.471.471,0,0,0,.141.351.4.4,0,0,0,.281.141.48.48,0,0,0,.492-.492.407.407,0,0,0-.14-.282.482.482,0,0,0-.352-.14.5.5,0,0,0-.422.422Zm0,7.1a.472.472,0,0,0,.141.352.4.4,0,0,0,.281.14.492.492,0,1,0,0-.984.4.4,0,0,0-.281.141A.472.472,0,0,0,733.322,159.719Zm0,7.1a.5.5,0,0,0,.422.422.475.475,0,0,0,.352-.141.4.4,0,0,0,.14-.281.479.479,0,0,0-.492-.492.407.407,0,0,0-.281.14A.475.475,0,0,0,733.322,166.821Zm9.914-14.2a1.762,1.762,0,0,1-.527,1.3,1.686,1.686,0,0,1-1.23.528,1.8,1.8,0,0,1-1.829-1.828,1.688,1.688,0,0,1,.528-1.231,1.767,1.767,0,0,1,1.3-.527,1.8,1.8,0,0,1,1.757,1.758Zm0,7.1a1.649,1.649,0,0,1-.527,1.266,1.748,1.748,0,0,1-1.23.492,1.832,1.832,0,0,1-1.3-.492,1.781,1.781,0,0,1,0-2.531,1.833,1.833,0,0,1,1.3-.493,1.749,1.749,0,0,1,1.23.493A1.651,1.651,0,0,1,743.236,159.719Zm0,7.1a1.8,1.8,0,0,1-1.757,1.758,1.764,1.764,0,0,1-1.3-.528,1.683,1.683,0,0,1-.528-1.23,1.8,1.8,0,0,1,1.829-1.828,1.685,1.685,0,0,1,1.23.527A1.768,1.768,0,0,1,743.236,166.821Zm-2.25-14.2a.482.482,0,0,0,.493.492.4.4,0,0,0,.281-.141.474.474,0,0,0,.14-.351.494.494,0,0,0-.421-.422.48.48,0,0,0-.352.14A.4.4,0,0,0,740.986,152.618Zm0,7.1a.48.48,0,0,0,.493.492.4.4,0,0,0,.281-.14.511.511,0,0,0,0-.7.408.408,0,0,0-.281-.141.482.482,0,0,0-.493.492Zm0,7.1a.4.4,0,0,0,.141.281.473.473,0,0,0,.352.141.4.4,0,0,0,.281-.141.4.4,0,0,0,.14-.281.478.478,0,0,0-.14-.352.411.411,0,0,0-.281-.14.48.48,0,0,0-.352.14A.475.475,0,0,0,740.986,166.821Z" transform="translate(-676.733 -105.274)" fill="#254e6d"/>
</svg>
