<svg xmlns="http://www.w3.org/2000/svg" width="84" height="84" viewBox="0 0 84 84">
  <g id="Group_10560" data-name="Group 10560" transform="translate(-0.251)">
    <rect id="Frame" width="84" height="84" transform="translate(0.251)" fill="#fff" opacity="0"/>
    <path id="Path_463" data-name="Path 463" d="M369.4,322.151a6.242,6.242,0,0,1-6.187,6.188h-.985a6.029,6.029,0,0,1-4.429-1.828,5.947,5.947,0,0,1-1.828-4.36V304.995a.3.3,0,0,1,.035-.141.309.309,0,0,0,.035-.14,16.171,16.171,0,0,1-7.031-6.047,17.251,17.251,0,0,1-1.477-15.82,16.008,16.008,0,0,1,3.34-5.344,15.683,15.683,0,0,1,4.957-3.516,14.4,14.4,0,0,1,6.117-1.336,42.642,42.642,0,0,1,6.539.633q4.008.564,8.3,1.547t8.367,2.32a36.468,36.468,0,0,1,6.75,2.743l.633.281v18.211l-.633.351a45.613,45.613,0,0,1-4.64,1.969q-2.675.986-5.7,1.828t-6.187,1.477q-3.165.7-5.977,1.2Zm14.344-43.1q-3.867-1.2-7.945-2.11t-7.735-1.476a42.633,42.633,0,0,0-6.117-.563,12.386,12.386,0,0,0-5.2,1.125,13.419,13.419,0,0,0-4.289,3.094,14.829,14.829,0,0,0-3.938,10.2,14.641,14.641,0,0,0,1.055,5.555,14.791,14.791,0,0,0,2.883,4.57,13.358,13.358,0,0,0,4.289,3.094,12.355,12.355,0,0,0,5.2,1.125,42.465,42.465,0,0,0,6.117-.562q3.656-.562,7.735-1.477t7.945-2.109a43.45,43.45,0,0,0,6.539-2.532v-15.4A43.782,43.782,0,0,0,383.748,279.05ZM369.264,289.1a6.543,6.543,0,1,1-1.9-4.605A6.311,6.311,0,0,1,369.264,289.1Zm-4.922,16.7q-1.337.105-2.391.105a16.6,16.6,0,0,1-1.9-.105,10.148,10.148,0,0,1-1.828-.387v16.734a3.788,3.788,0,0,0,1.16,2.778,3.871,3.871,0,0,0,2.847,1.16h.985a3.961,3.961,0,0,0,3.937-3.938V305.487Q365.678,305.7,364.342,305.8Zm2.672-16.7a4.323,4.323,0,1,0-1.266,3.024A4.128,4.128,0,0,0,367.014,289.1Zm30.3-5.906a.949.949,0,0,1-.527-.668,1.089,1.089,0,0,1,.176-.879,1,1,0,0,1,.668-.457,1.272,1.272,0,0,1,.879.106,5.608,5.608,0,0,0,3.023,1.054,7.894,7.894,0,0,0,3.234-.843l.493-.246c.14-.071.515-.246,1.125-.528a14.866,14.866,0,0,1,6.5-1.933,12.6,12.6,0,0,1,6.574,2.285.953.953,0,0,1,.527.668,1.091,1.091,0,0,1-.176.879,1,1,0,0,1-.668.457,1.271,1.271,0,0,1-.879-.106,10.494,10.494,0,0,0-5.414-1.933,13.287,13.287,0,0,0-5.484,1.652c-.095.1-.165.141-.211.141a.554.554,0,0,0-.211.07.806.806,0,0,0-.211.141.286.286,0,0,1-.211.07,3.6,3.6,0,0,1-.422.246,3.135,3.135,0,0,1-.421.176,10.386,10.386,0,0,1-4.254,1.054A7.65,7.65,0,0,1,397.318,283.2Zm0,7.664a1.18,1.18,0,0,1-.527-.7,1.027,1.027,0,0,1,.176-.844.949.949,0,0,1,.668-.527,1.093,1.093,0,0,1,.879.176,5.61,5.61,0,0,0,3.023,1.055,7.9,7.9,0,0,0,3.234-.844l.493-.246c.14-.071.515-.246,1.125-.528a14.866,14.866,0,0,1,6.5-1.933,12.6,12.6,0,0,1,6.574,2.285.955.955,0,0,1,.527.668,1.09,1.09,0,0,1-.176.879.994.994,0,0,1-.668.457,1.271,1.271,0,0,1-.879-.106,10.494,10.494,0,0,0-5.414-1.933,13.287,13.287,0,0,0-5.484,1.652l-.211.106-.211.1-.211.106-.211.1a3.6,3.6,0,0,1-.422.246,3.135,3.135,0,0,1-.421.176,9.917,9.917,0,0,1-4.254,1.019A8.222,8.222,0,0,1,397.318,290.862Zm0,7.664a1.18,1.18,0,0,1-.527-.738.907.907,0,0,1,.176-.809.949.949,0,0,1,.668-.527,1.093,1.093,0,0,1,.879.176,6.158,6.158,0,0,0,3.023,1.019,7.419,7.419,0,0,0,3.234-.808l.493-.246c.14-.071.515-.269,1.125-.6a15.315,15.315,0,0,1,6.5-1.863,12.856,12.856,0,0,1,6.574,2.215,1.191,1.191,0,0,1,.527.738.907.907,0,0,1-.176.809.951.951,0,0,1-.668.527,1.271,1.271,0,0,1-.879-.106,10.494,10.494,0,0,0-5.414-1.933,13.3,13.3,0,0,0-5.484,1.652l-.211.106-.211.1-.211.106-.211.1a1.682,1.682,0,0,1-.422.211,1.8,1.8,0,0,0-.421.211,9.917,9.917,0,0,1-4.254,1.019A8.212,8.212,0,0,1,397.318,298.526Z" transform="translate(-340.896 -258.495)" fill="#254e6d"/>
  </g>
</svg>
