<svg id="Group_10557" data-name="Group 10557" xmlns="http://www.w3.org/2000/svg" width="84" height="84" viewBox="0 0 84 84">
  <rect id="Frame" width="84" height="84" fill="#fff" opacity="0"/>
  <path id="Path_483" data-name="Path 483" d="M413.5,139.293q-3.413-.033-8.4-.386-1.266-.069-2.636-.176t-2.778-.176q-1.618-.139-3.129-.281t-2.988-.281c-.328-.046-.645-.081-.949-.106s-.6-.035-.879-.035a1.266,1.266,0,0,0-.387-.07H391.1l.211-2.18h.246a2.027,2.027,0,0,1,.457.07,5.543,5.543,0,0,1,.809.071,6.213,6.213,0,0,0,.949.07q1.476.143,2.988.281t3.059.282q1.405.07,2.777.175t2.637.246q4.851.282,8.156.317a32.062,32.062,0,0,0,4.641-.176,7.605,7.605,0,0,0,3.269-1.758,18.529,18.529,0,0,0,3.129-3.515,1.627,1.627,0,0,1,2-.668,1.649,1.649,0,0,1,1.3,1.722v40.852a4.08,4.08,0,0,1-4.078,4.078h-.633a3.926,3.926,0,0,1-2.285-.7,3.8,3.8,0,0,1-1.442-1.828l-7.242-19.828a.433.433,0,0,0-.246-.282.559.559,0,0,0-.387,0,20.927,20.927,0,0,1-5.062.985,56.871,56.871,0,0,1-6.434.351q-3.339,0-6.5-.281a30.294,30.294,0,0,1-5.2-.984.39.39,0,0,0-.386.07.738.738,0,0,0-.247.352q-.422,2.883-1.265,7.91t-1.828,10.722a4.2,4.2,0,0,1-1.442,2.532,4.051,4.051,0,0,1-2.707.984,4.253,4.253,0,0,1-4.219-3.656l-3.585-28.125a5.581,5.581,0,0,0-1.618-3.164,5.206,5.206,0,0,0-3.164-1.547l-7.312-.844a3.006,3.006,0,0,1-1.617-.6,3.22,3.22,0,0,1-1.055-1.371l-1.758-4.289a2.988,2.988,0,0,1,0-2.531,3.2,3.2,0,0,1,1.9-1.758l13.992-5.133,2.672-6.468a2.017,2.017,0,0,1,2-1.266,1.892,1.892,0,0,1,1.933,1.336l5.836,15.258a8.371,8.371,0,0,1,.633,3.2,9.05,9.05,0,0,1-2.426,6.223,8.358,8.358,0,0,1-2.848,2.039l-.562.281c-.188.1-.376.188-.563.281-.421.188-.868.387-1.336.6s-.938.434-1.406.668c-.281.14-.457.223-.527.246a3.725,3.725,0,0,0-.387.176l3.375,26.507a2.126,2.126,0,0,0,.7,1.266,2.021,2.021,0,0,0,2.6.035,1.985,1.985,0,0,0,.7-1.23q.984-5.7,1.828-10.723t1.336-7.91a2.617,2.617,0,0,1,1.2-1.828,2.533,2.533,0,0,1,2.18-.281,26.242,26.242,0,0,0,4.922.843q2.954.282,6.117.282t6.117-.282a20.853,20.853,0,0,0,4.711-.914,2.676,2.676,0,0,1,2.039.106,2.451,2.451,0,0,1,1.336,1.441l7.313,19.828a1.445,1.445,0,0,0,.6.809,1.75,1.75,0,0,0,1.02.316h.633a1.919,1.919,0,0,0,1.9-1.9V133.844a17.7,17.7,0,0,1-3.34,3.41,9.422,9.422,0,0,1-3.761,1.793A28.962,28.962,0,0,1,413.5,139.293Zm-37.231,4.887c.468-.234.938-.445,1.406-.633.187-.093.375-.186.563-.281s.375-.186.562-.281a7.241,7.241,0,0,0,2.145-1.547,5.807,5.807,0,0,0,1.371-2.32,6.426,6.426,0,0,0,.492-2.461,5.921,5.921,0,0,0-.492-2.391l-5.766-15.117-2.672,6.328a1.9,1.9,0,0,1-1.2,1.195L358.618,131.8a.946.946,0,0,0-.6.563,1.345,1.345,0,0,0-.035.914l1.828,4.219a.773.773,0,0,0,.316.457,1.532,1.532,0,0,0,.528.246l7.312.843a7.525,7.525,0,0,1,4.289,1.934,7.293,7.293,0,0,1,2.321,3.973.3.3,0,0,0,.14-.036.531.531,0,0,0,.141-.1Q375.562,144.533,376.266,144.18Z" transform="translate(-349.735 -105.274)" fill="#254e6d"/>
</svg>
