<svg xmlns="http://www.w3.org/2000/svg" width="84" height="84" viewBox="0 0 84 84">
  <g id="Group_10557" data-name="Group 10557" transform="translate(-0.103 -1)">
    <rect id="Frame" width="84" height="84" transform="translate(0.103 1)" fill="#fff" opacity="0"/>
    <path id="Path_464" data-name="Path 464" d="M685.951,108.781h-9.422L679.9,92.117h14.344l3.375,16.664H688.2V121.3h54.914v40.5h-2.25v-38.25H702.686v39.234H670.061V121.3h15.89Zm14.485,25.594V123.547H672.311v10.828Zm-28.125,13.078h28.125V136.625H672.311Zm28.125,2.25H672.311v10.828h28.125ZM681.8,94.367l-2.532,12.164h15.61L692.42,94.367Zm2.6,35.719v-2.25h5.414v2.25Zm0,13.078v-2.25h5.414v2.25Zm0,13.078v-2.25h5.414v2.25Z" transform="translate(-664.588 -84.949)" fill="#254e6d"/>
  </g>
</svg>
