<svg xmlns="http://www.w3.org/2000/svg" width="84" height="84" viewBox="0 0 84 84">
  <g id="Group_10560" data-name="Group 10560" transform="translate(-0.251)">
    <rect id="Frame" width="84" height="84" transform="translate(0.251)" fill="#fff" opacity="0"/>
    <path id="Path_476" data-name="Path 476" d="M515.373,326.476q.141,1.653.141,3.48a.735.735,0,0,1-.035.281c-.025.048-.083.188-.176.422l-.422.352-.317.105a.735.735,0,0,1-.246.035H456.381a.857.857,0,0,1-.317-.07c-.117-.046-.222-.093-.316-.141a.715.715,0,0,1-.176-.105c-.024-.023-.059-.058-.1-.106l-.071-.07.141.141-.351-.352v-.492a43.931,43.931,0,0,1,.562-7.1,41.137,41.137,0,0,1,1.652-6.644,34.09,34.09,0,0,1,2.707-6.012,32.907,32.907,0,0,1,3.657-5.273l.316-.317a4.325,4.325,0,0,0,.387-.457h.07a.95.95,0,0,1,.176-.246l.246-.246v-.492a131.566,131.566,0,0,1,.527-13.254,29.892,29.892,0,0,1,2.215-8.824,19.036,19.036,0,0,1,2.567-4.641,14.41,14.41,0,0,1,3.55-3.3,16.838,16.838,0,0,1,5.2-2.215,27.3,27.3,0,0,1,6.61-.739,25.321,25.321,0,0,1,6.539.774,16.593,16.593,0,0,1,5.133,2.32,13.362,13.362,0,0,1,3.515,3.375,19.479,19.479,0,0,1,2.461,4.711,27.332,27.332,0,0,1,1.512,5.555q.528,3.095.809,6.89.069,1.969.1,3.973t.035,5.379v.492c.046.048.106.106.176.176l.176.176q.351.353.527.527c.116.118.176.2.176.246a2.574,2.574,0,0,1,.176.211,2.308,2.308,0,0,0,.246.281,4.059,4.059,0,0,1,.492.6c.141.211.281.411.422.6l.07.07.07.07q.281.423.563.774a3.844,3.844,0,0,1,.422.633l.492.7.844-.211a6.108,6.108,0,0,0,2.285-1.02,10.8,10.8,0,0,0,2.074-2.074,3.738,3.738,0,0,0,.281-.316q.141-.176.352-.457l.07-.071q1.2-1.545,2.039-2.5a9.949,9.949,0,0,1,2.039-1.723l.493-.281V300l.421-.211.422.07a.568.568,0,0,1,.352.106,2.793,2.793,0,0,1,.281.246l5.414,5.344.071.351a1.576,1.576,0,0,1-.071.492,1.811,1.811,0,0,1-.281.493,13.3,13.3,0,0,0-1.441,1.9,25.391,25.391,0,0,0-1.512,2.883c-.047.1-.095.188-.141.281a2.655,2.655,0,0,0-.14.352l-.211.351-.071.211a31.815,31.815,0,0,1-3.41,6.082,10.18,10.18,0,0,1-4.183,3.059l-.914.351.21.985Q515.232,324.823,515.373,326.476Zm-8.016-17.262-.351-.527a4.5,4.5,0,0,0-.563-.668v-.106c0-.023-.024-.035-.07-.035-.141-.187-.293-.387-.457-.6s-.316-.409-.457-.6a2.4,2.4,0,0,1-.246-.282,1.716,1.716,0,0,1-.176-.281,4.316,4.316,0,0,0-.562-.492v-.07c-.1-.094-.2-.2-.317-.317s-.222-.221-.316-.316l-.352-.352v-1.406q0-3.375-.035-5.309t-.1-3.9a55.062,55.062,0,0,0-.739-6.574,27.852,27.852,0,0,0-1.441-5.238,17.45,17.45,0,0,0-2.18-4.114,12.95,12.95,0,0,0-2.953-2.918,14.582,14.582,0,0,0-4.535-2,23.454,23.454,0,0,0-5.871-.668,24.2,24.2,0,0,0-5.977.668,15.565,15.565,0,0,0-4.57,1.934,11.774,11.774,0,0,0-3.059,2.848,18.942,18.942,0,0,0-2.285,4.043,31.828,31.828,0,0,0-2,8.4,122.4,122.4,0,0,0-.527,12.832v1.406l-.352.352c-.046.047-.117.117-.211.211s-.187.188-.281.281a1.11,1.11,0,0,0-.211.281h-.07a4.329,4.329,0,0,1-.387.457c-.117.118-.2.2-.246.246a29.144,29.144,0,0,0-3.3,4.711,32.174,32.174,0,0,0-2.5,5.379,37.138,37.138,0,0,0-1.582,6.012,40.218,40.218,0,0,0-.632,6.4h55.828q-.07-1.476-.176-2.742t-.317-2.461l-.281-1.687L508.2,310.479Zm-3.515-4.289a24.763,24.763,0,0,0-8.4-5.66,26.486,26.486,0,0,0-10.089-1.934,26.172,26.172,0,0,0-5.766.633,27.3,27.3,0,0,0-5.414,1.828,32.8,32.8,0,0,0-3.867,2.285,24.31,24.31,0,0,0-3.446,2.848l-1.617-1.617A25.705,25.705,0,0,1,469,300.214a33.857,33.857,0,0,1,4.254-2.461,27.321,27.321,0,0,1,5.836-2,29.483,29.483,0,0,1,17.191,1.441,27.636,27.636,0,0,1,9.176,6.118Zm-21.9-13.008a3.637,3.637,0,0,0-.246,1.336v3.094h-2.25v-3.094a6,6,0,0,1,.387-2.145,6.635,6.635,0,0,1,1.16-1.933l.141-.071.07-.07.07-.07a6.207,6.207,0,0,1,1.9-1.195,5.8,5.8,0,0,1,2.18-.422,5.542,5.542,0,0,1,2.144.422,7.361,7.361,0,0,1,1.934,1.195l.07.07.07.07.141.071a6.656,6.656,0,0,1,1.16,1.933,6.025,6.025,0,0,1,.387,2.145v3.094h-2.25v-3.094a3.658,3.658,0,0,0-.246-1.336,4.07,4.07,0,0,0-.739-1.2l-.07-.071h-.07a3.529,3.529,0,0,0-1.2-.808,3.662,3.662,0,0,0-1.336-.246,3.935,3.935,0,0,0-1.371.246,2.829,2.829,0,0,0-1.161.808h-.07l-.07.071A4.07,4.07,0,0,0,481.939,291.917Zm32.872,28.055a8.556,8.556,0,0,0,3.48-2.6,31.519,31.519,0,0,0,2.988-5.414l.071-.211.211-.351a2.077,2.077,0,0,1,.14-.422c.046-.094.094-.187.141-.282q.773-1.545,1.371-2.636a12.033,12.033,0,0,1,1.3-1.934l-3.8-3.726a10.942,10.942,0,0,0-1.547,1.406q-.7.774-1.688,2.109h-.07l-.07.141c-.141.188-.258.341-.352.457a3.584,3.584,0,0,1-.281.316,12.333,12.333,0,0,1-2.566,2.531,8.864,8.864,0,0,1-3.059,1.336l-.352.071,3.516,9.422Z" transform="translate(-448.935 -258.67)" fill="#254e6d"/>
  </g>
</svg>
