<svg xmlns="http://www.w3.org/2000/svg" width="84" height="84" viewBox="0 0 84 84">
  <g id="Group_10560" data-name="Group 10560" transform="translate(-0.251)">
    <rect id="Frame" width="84" height="84" transform="translate(0.251)" fill="#fff" opacity="0"/>
    <path id="Path_475" data-name="Path 475" d="M589.412,291.706q-4.289.282-8.367.738t-8.016,1.09h-.07q-2.391.422-4.711.914t-4.5,1.055a1.232,1.232,0,0,1-.844-.176.935.935,0,0,1-.492-.668.99.99,0,0,1,.106-.844.94.94,0,0,1,.668-.492q2.25-.561,4.605-1.054t4.816-.915a20.488,20.488,0,0,0,4.465-1.687q2-1.055,5.168-3.164l.141-.07a52.382,52.382,0,0,1,6.5-3.868,19.657,19.657,0,0,1,6.011-1.757.817.817,0,0,0-.14-.211c-.047-.046-.117-.117-.211-.211a8.235,8.235,0,0,1-1.336-2.461,8.875,8.875,0,0,1-.492-2.953,12.215,12.215,0,0,1,.527-3.832,5.267,5.267,0,0,1,1.652-2.5,4.81,4.81,0,0,1,1.934-1.09,8.686,8.686,0,0,1,2.426-.317,8.973,8.973,0,0,1,2.5.317,4.81,4.81,0,0,1,1.934,1.09,5.786,5.786,0,0,1,1.617,2.5,11.493,11.493,0,0,1,.562,3.832,8.9,8.9,0,0,1-.492,2.953,8.257,8.257,0,0,1-1.336,2.461l-.211.211a.77.77,0,0,0-.14.211,22.178,22.178,0,0,1,6.4,1.828,69.887,69.887,0,0,1,7.242,3.937,2.2,2.2,0,0,1,.281.211,1.889,1.889,0,0,0,.282.211,59.436,59.436,0,0,0,5.449,3.059,22.963,22.963,0,0,0,4.465,1.582q1.967.353,3.8.773l3.656.844a1.25,1.25,0,0,1,.668.527,1.037,1.037,0,0,1,.1.879.935.935,0,0,1-.492.668.986.986,0,0,1-.844.106q-1.758-.423-3.55-.809t-3.622-.738h-.14q-4.36-.844-8.965-1.371t-9.457-.809v10.2a5.974,5.974,0,0,0,2.074-.492,15.45,15.45,0,0,0,2.215-1.265,13.245,13.245,0,0,1,2-1.055,5.861,5.861,0,0,1,3.586,0,13.245,13.245,0,0,1,2,1.055,13.726,13.726,0,0,0,2.566,1.406,7.7,7.7,0,0,0,5.028,0,16.47,16.47,0,0,0,2.6-1.406,9.927,9.927,0,0,1,2-1.055,5.671,5.671,0,0,1,1.863-.281,1.134,1.134,0,0,1,.774.316,1.041,1.041,0,0,1,.351.809,1.21,1.21,0,0,1-1.125,1.125,3.089,3.089,0,0,0-1.16.211,13.364,13.364,0,0,0-1.512.773,14.76,14.76,0,0,1-3.093,1.687,9.372,9.372,0,0,1-3.235.493,9.13,9.13,0,0,1-3.164-.493,16.292,16.292,0,0,1-3.164-1.687,9.46,9.46,0,0,0-1.441-.809,3.482,3.482,0,0,0-2.18,0,9.317,9.317,0,0,0-1.441.809,16.348,16.348,0,0,1-3.164,1.687,9.138,9.138,0,0,1-3.164.493,8.811,8.811,0,0,1-3.235-.528,18.553,18.553,0,0,1-3.094-1.652,11.73,11.73,0,0,0-1.511-.809,3.069,3.069,0,0,0-1.09-.175,3.135,3.135,0,0,0-1.055.175,8.368,8.368,0,0,0-1.476.809,14.343,14.343,0,0,1-3.129,1.687,10.629,10.629,0,0,1-6.4,0,14.321,14.321,0,0,1-3.129-1.687,9.413,9.413,0,0,0-1.441-.809,3.482,3.482,0,0,0-2.18,0,9.366,9.366,0,0,0-1.441.809,16.348,16.348,0,0,1-3.164,1.687,9.372,9.372,0,0,1-3.235.493,9.13,9.13,0,0,1-3.164-.493,16.292,16.292,0,0,1-3.164-1.687,10.233,10.233,0,0,0-1.441-.773,3.089,3.089,0,0,0-1.16-.211,1.039,1.039,0,0,1-.809-.352,1.13,1.13,0,0,1-.316-.773,1.082,1.082,0,0,1,1.125-1.125,5.676,5.676,0,0,1,1.863.281,9.98,9.98,0,0,1,2,1.055,13.724,13.724,0,0,0,2.566,1.406,7.7,7.7,0,0,0,5.028,0,16.47,16.47,0,0,0,2.6-1.406,13.245,13.245,0,0,1,2-1.055,5.064,5.064,0,0,1,1.793-.281,4.841,4.841,0,0,1,1.723.281,13.245,13.245,0,0,1,2,1.055,13.734,13.734,0,0,0,2.179,1.23,7.571,7.571,0,0,0,1.969.527Zm-15.891,17.227a3.72,3.72,0,1,1-2.636,1.089A3.595,3.595,0,0,1,573.521,308.933Zm0,12.023a3.721,3.721,0,0,1,3.727,3.727,3.475,3.475,0,0,1-1.09,2.6,3.822,3.822,0,0,1-5.273,0,3.471,3.471,0,0,1-1.09-2.6,3.722,3.722,0,0,1,3.726-3.727Zm0-9.773a1.467,1.467,0,0,0-1.019.421,1.373,1.373,0,0,0-.457,1.055,1.569,1.569,0,0,0,1.476,1.477,1.375,1.375,0,0,0,1.055-.457,1.467,1.467,0,0,0,.422-1.02,1.441,1.441,0,0,0-1.477-1.476Zm0,12.023a1.468,1.468,0,0,0-1.019.422,1.371,1.371,0,0,0-.457,1.055,1.294,1.294,0,0,0,.457.984,1.468,1.468,0,0,0,1.019.422,1.432,1.432,0,0,0,1.055-.422,1.347,1.347,0,0,0,.422-.984,1.442,1.442,0,0,0-1.477-1.477Zm8.579-8.227a3.6,3.6,0,0,1,2.636,1.09,3.512,3.512,0,0,1,1.09,2.567,3.721,3.721,0,0,1-3.726,3.726,3.472,3.472,0,0,1-2.6-1.09,3.652,3.652,0,0,1-1.055-2.636,3.573,3.573,0,0,1,1.055-2.567A3.479,3.479,0,0,1,582.1,314.979Zm0,12.024a3.6,3.6,0,0,1,2.636,1.09,3.51,3.51,0,0,1,1.09,2.566,3.721,3.721,0,0,1-3.726,3.727,3.479,3.479,0,0,1-2.6-1.09,3.655,3.655,0,0,1-1.055-2.637,3.571,3.571,0,0,1,1.055-2.566A3.479,3.479,0,0,1,582.1,327Zm11.355-25.664a19.371,19.371,0,0,0,2.074-1.195,13.245,13.245,0,0,1,2-1.055,4.836,4.836,0,0,1,1.723-.281,5.064,5.064,0,0,1,1.793.281,13.245,13.245,0,0,1,2,1.055,13.471,13.471,0,0,0,1.968,1.16,6.643,6.643,0,0,0,1.688.527V289.737a1.212,1.212,0,0,1,1.125-1.125,1.034,1.034,0,0,1,.7.246,1.574,1.574,0,0,1,.422.6q2.6.143,5.168.387t5.027.527q-.564-.351-1.16-.7t-1.23-.773c-.188-.094-.306-.152-.352-.176a2.924,2.924,0,0,1-.281-.176,49.532,49.532,0,0,0-8.684-4.5,23.96,23.96,0,0,0-8.191-1.266,22.216,22.216,0,0,0-7.8,1.2,41.222,41.222,0,0,0-7.8,4.289l-.14.07q-.775.564-1.477,1.02t-1.336.878q2.11-.279,4.325-.457t4.394-.316a1.553,1.553,0,0,1,.422-.6,1.034,1.034,0,0,1,.7-.246,1.21,1.21,0,0,1,1.125,1.125V301.9A6.362,6.362,0,0,0,593.455,301.339ZM582.1,317.229a1.442,1.442,0,0,0-1.407,1.407,1.43,1.43,0,0,0,.422,1.054,1.346,1.346,0,0,0,.985.422,1.442,1.442,0,0,0,1.476-1.476,1.349,1.349,0,0,0-.422-.985A1.431,1.431,0,0,0,582.1,317.229Zm0,12.024a1.442,1.442,0,0,0-1.407,1.406,1.432,1.432,0,0,0,.422,1.055,1.35,1.35,0,0,0,.985.422,1.442,1.442,0,0,0,1.476-1.477,1.347,1.347,0,0,0-.422-.984A1.432,1.432,0,0,0,582.1,329.253Zm8.578-20.32a3.726,3.726,0,1,1,0,7.453,3.511,3.511,0,0,1-2.567-1.09,3.735,3.735,0,0,1,0-5.274A3.513,3.513,0,0,1,590.678,308.933Zm0,12.023a3.721,3.721,0,0,1,3.726,3.727,3.475,3.475,0,0,1-1.09,2.6,3.655,3.655,0,0,1-2.636,1.055,3.571,3.571,0,0,1-2.567-1.055,3.474,3.474,0,0,1-1.09-2.6,3.592,3.592,0,0,1,1.09-2.637A3.515,3.515,0,0,1,590.678,320.956Zm0-9.773a1.35,1.35,0,0,0-.985.421,1.434,1.434,0,0,0-.422,1.055,1.467,1.467,0,0,0,.422,1.02,1.3,1.3,0,0,0,.985.457,1.373,1.373,0,0,0,1.054-.457,1.463,1.463,0,0,0,.422-1.02,1.441,1.441,0,0,0-1.476-1.476Zm0,12.023a1.351,1.351,0,0,0-.985.422,1.432,1.432,0,0,0-.422,1.055,1.442,1.442,0,0,0,1.407,1.406,1.43,1.43,0,0,0,1.054-.422,1.344,1.344,0,0,0,.422-.984,1.442,1.442,0,0,0-1.476-1.477Zm12.551-51.187a4.534,4.534,0,0,0-1.02-1.758,2.887,2.887,0,0,0-1.2-.6,7.46,7.46,0,0,0-1.758-.176,7.1,7.1,0,0,0-1.688.176,2.875,2.875,0,0,0-1.2.6,3.855,3.855,0,0,0-1.055,1.758,10.141,10.141,0,0,0-.351,2.953,6.826,6.826,0,0,0,.351,2.179,5.706,5.706,0,0,0,.985,1.828,5.261,5.261,0,0,0,1.406,1.125,3.2,3.2,0,0,0,1.547.422,3.328,3.328,0,0,0,1.617-.422,5.276,5.276,0,0,0,1.406-1.125,5.725,5.725,0,0,0,.985-1.828,6.853,6.853,0,0,0,.351-2.179A9.346,9.346,0,0,0,603.229,272.019Zm-3.973,42.96a3.6,3.6,0,0,1,2.637,1.09,3.515,3.515,0,0,1,1.089,2.567,3.72,3.72,0,0,1-3.726,3.726,3.507,3.507,0,0,1-2.567-1.09,3.587,3.587,0,0,1-1.089-2.636,3.722,3.722,0,0,1,3.656-3.657Zm0,12.024a3.6,3.6,0,0,1,2.637,1.09,3.513,3.513,0,0,1,1.089,2.566,3.72,3.72,0,0,1-3.726,3.727,3.514,3.514,0,0,1-2.567-1.09,3.591,3.591,0,0,1-1.089-2.637A3.722,3.722,0,0,1,599.256,327Zm0-9.774a1.44,1.44,0,0,0-1.406,1.407,1.429,1.429,0,0,0,.421,1.054,1.347,1.347,0,0,0,.985.422,1.441,1.441,0,0,0,1.476-1.476,1.352,1.352,0,0,0-.421-.985A1.434,1.434,0,0,0,599.256,317.229Zm0,12.024a1.44,1.44,0,0,0-1.406,1.406,1.431,1.431,0,0,0,.421,1.055,1.351,1.351,0,0,0,.985.422,1.441,1.441,0,0,0,1.476-1.477,1.35,1.35,0,0,0-.421-.984A1.434,1.434,0,0,0,599.256,329.253Zm8.648-20.32a3.515,3.515,0,0,1,2.567,1.089,3.735,3.735,0,0,1,0,5.274,3.512,3.512,0,0,1-2.567,1.09,3.726,3.726,0,1,1,0-7.453Zm0,12.023a3.516,3.516,0,0,1,2.567,1.09,3.6,3.6,0,0,1,1.09,2.637,3.478,3.478,0,0,1-1.09,2.6,3.573,3.573,0,0,1-2.567,1.055,3.652,3.652,0,0,1-2.636-1.055,3.471,3.471,0,0,1-1.09-2.6,3.722,3.722,0,0,1,3.726-3.727Zm0-9.773a1.441,1.441,0,0,0-1.476,1.476,1.463,1.463,0,0,0,.422,1.02,1.373,1.373,0,0,0,1.054.457,1.3,1.3,0,0,0,.985-.457,1.467,1.467,0,0,0,.422-1.02,1.434,1.434,0,0,0-.422-1.055A1.352,1.352,0,0,0,607.9,311.183Zm0,12.023a1.442,1.442,0,0,0-1.476,1.477,1.344,1.344,0,0,0,.422.984,1.43,1.43,0,0,0,1.054.422,1.442,1.442,0,0,0,1.407-1.406,1.432,1.432,0,0,0-.422-1.055A1.353,1.353,0,0,0,607.9,323.206Zm8.578-8.227a3.48,3.48,0,0,1,2.6,1.09,3.573,3.573,0,0,1,1.055,2.567,3.652,3.652,0,0,1-1.055,2.636,3.473,3.473,0,0,1-2.6,1.09,3.722,3.722,0,0,1-3.726-3.726,3.508,3.508,0,0,1,1.09-2.567A3.592,3.592,0,0,1,616.482,314.979Zm0,12.024a3.48,3.48,0,0,1,2.6,1.09,3.571,3.571,0,0,1,1.055,2.566,3.655,3.655,0,0,1-1.055,2.637,3.48,3.48,0,0,1-2.6,1.09,3.722,3.722,0,0,1-3.726-3.727,3.506,3.506,0,0,1,1.09-2.566A3.592,3.592,0,0,1,616.482,327Zm0-9.774a1.431,1.431,0,0,0-1.054.422,1.349,1.349,0,0,0-.422.985,1.442,1.442,0,0,0,1.476,1.476,1.347,1.347,0,0,0,.985-.422,1.43,1.43,0,0,0,.422-1.054,1.442,1.442,0,0,0-1.407-1.407Zm0,12.024a1.432,1.432,0,0,0-1.054.422,1.347,1.347,0,0,0-.422.984,1.442,1.442,0,0,0,1.476,1.477,1.351,1.351,0,0,0,.985-.422,1.432,1.432,0,0,0,.422-1.055,1.442,1.442,0,0,0-1.407-1.406Zm8.579-20.32a3.479,3.479,0,0,1,2.6,1.089,3.823,3.823,0,0,1,0,5.274,3.476,3.476,0,0,1-2.6,1.09,3.726,3.726,0,1,1,0-7.453Zm0,12.023a3.48,3.48,0,0,1,2.6,1.09,3.656,3.656,0,0,1,1.055,2.637,3.6,3.6,0,0,1-3.656,3.656,3.652,3.652,0,0,1-2.637-1.055,3.471,3.471,0,0,1-1.09-2.6,3.722,3.722,0,0,1,3.727-3.727Zm0-9.773a1.441,1.441,0,0,0-1.477,1.476,1.467,1.467,0,0,0,.422,1.02,1.375,1.375,0,0,0,1.055.457,1.3,1.3,0,0,0,.984-.457,1.467,1.467,0,0,0,.422-1.02,1.434,1.434,0,0,0-.422-1.055A1.348,1.348,0,0,0,625.061,311.183Zm0,12.023a1.442,1.442,0,0,0-1.477,1.477,1.347,1.347,0,0,0,.422.984,1.432,1.432,0,0,0,1.055.422,1.442,1.442,0,0,0,1.406-1.406,1.432,1.432,0,0,0-.422-1.055A1.349,1.349,0,0,0,625.061,323.206Z" transform="translate(-556.97 -258.812)" fill="#254e6d"/>
  </g>
</svg>
