<svg xmlns="http://www.w3.org/2000/svg" width="29.004" height="29.001" viewBox="0 0 29.004 29.001"><defs><style>.a{fill:#254e6d;stroke:rgba(0,0,0,0);stroke-miterlimit:10;}</style></defs><path class="a" d="M-6422.77-1643.08a10.289,10.289,0,0,1-3.4-.65,6.881,6.881,0,0,1-2.479-1.616,6.852,6.852,0,0,1-1.616-2.479,10.294,10.294,0,0,1-.649-3.4c-.068-1.493-.084-1.969-.084-5.772s.016-4.279.084-5.771a10.282,10.282,0,0,1,.65-3.4,6.865,6.865,0,0,1,1.617-2.479,6.877,6.877,0,0,1,2.479-1.615,10.283,10.283,0,0,1,3.4-.651c1.493-.068,1.969-.084,5.771-.084s4.28.016,5.773.084a10.275,10.275,0,0,1,3.4.651,6.861,6.861,0,0,1,2.479,1.615,6.819,6.819,0,0,1,1.617,2.479,10.322,10.322,0,0,1,.652,3.4c.066,1.493.084,1.969.084,5.771s-.018,4.279-.084,5.772a10.323,10.323,0,0,1-.652,3.4,6.826,6.826,0,0,1-1.616,2.479,6.858,6.858,0,0,1-2.479,1.616,10.28,10.28,0,0,1-3.4.65c-1.493.068-1.971.084-5.773.084S-6421.28-1643.02-6422.77-1643.08Zm.115-25.312a7.761,7.761,0,0,0-2.6.483,4.318,4.318,0,0,0-1.609,1.047,4.331,4.331,0,0,0-1.047,1.609,7.763,7.763,0,0,0-.483,2.6c-.066,1.477-.081,1.919-.081,5.657s.015,4.18.081,5.657a7.751,7.751,0,0,0,.483,2.6,4.322,4.322,0,0,0,1.046,1.609,4.317,4.317,0,0,0,1.61,1.047,7.768,7.768,0,0,0,2.6.483c1.477.068,1.919.081,5.657.081s4.182-.013,5.657-.081a7.75,7.75,0,0,0,2.6-.483,4.335,4.335,0,0,0,1.61-1.047,4.349,4.349,0,0,0,1.048-1.609,7.813,7.813,0,0,0,.48-2.6c.068-1.477.081-1.919.081-5.657s-.013-4.18-.081-5.657a7.777,7.777,0,0,0-.481-2.6,4.35,4.35,0,0,0-1.047-1.609,4.322,4.322,0,0,0-1.61-1.047,7.738,7.738,0,0,0-2.6-.483c-1.475-.068-1.917-.081-5.657-.081s-4.183.013-5.663.073Zm-1.288,11.4a6.947,6.947,0,0,1,6.946-6.947,6.946,6.946,0,0,1,6.944,6.947,6.946,6.946,0,0,1-6.947,6.947,6.946,6.946,0,0,1-6.94-6.955Zm2.437,0a4.508,4.508,0,0,0,4.508,4.508,4.508,4.508,0,0,0,4.509-4.509A4.508,4.508,0,0,0-6417-1661.5a4.508,4.508,0,0,0-4.513,4.5Zm10.205-7.437a1.74,1.74,0,0,1,1.74-1.74,1.74,1.74,0,0,1,1.741,1.74,1.74,1.74,0,0,1-.51,1.231,1.739,1.739,0,0,1-1.231.509,1.74,1.74,0,0,1-1.233-.514,1.739,1.739,0,0,1-.505-1.237Z" transform="translate(6431.499 1671.497)"/></svg>