<svg xmlns="http://www.w3.org/2000/svg" width="180" height="20.447" viewBox="0 0 180 20.447"><defs><style>.a{fill:#fff;}</style></defs><path class="a" d="M.516,101.05h9.763l-.413,1.572A1.732,1.732,0,0,1,8.2,103.908H6.953a.515.515,0,0,0-.516.516v16.629H3.985a.691.691,0,0,1-.691-.691V103.908H0v-2.342A.515.515,0,0,1,.516,101.05Z" transform="translate(0 -100.828)"/><path class="a" d="M31.563,121.051H28.42v-19.32a.691.691,0,0,1,.691-.691h2.453v7.89a.691.691,0,0,0,.691.691h2.881v-8.58h2.516a.691.691,0,0,1,.691.691v19.32H35.135v-7.874a.691.691,0,0,0-.691-.691H31.563Z" transform="translate(-5.861 -100.826)"/><path class="a" d="M61.325,109.488h4.326l-.318,1.484a1.726,1.726,0,0,1-1.691,1.365H61.849a.515.515,0,0,0-.516.516V118.2h5.429l-.318,1.492a1.726,1.726,0,0,1-1.691,1.365H58.19V101.566a.515.515,0,0,1,.516-.516h8.049l-.318,1.492a1.726,1.726,0,0,1-1.691,1.365h-2.9a.515.515,0,0,0-.516.516v5.064Z" transform="translate(-12.001 -100.828)"/><path class="a" d="M102.2,114.433,98.22,101.05h2.492a1.036,1.036,0,0,1,1,.77l2.2,8.35,2.2-8.35a1.036,1.036,0,0,1,1-.77h2.2l-3.977,13.383v6.628h-2.619a.515.515,0,0,1-.516-.516v-6.112Z" transform="translate(-20.257 -100.828)"/><path class="a" d="M166.262,112.922v3.27q0,5.024-4.691,5.024t-4.691-5.024v-10.4q0-5.025,4.691-5.024t4.691,5.024v.548a1.732,1.732,0,0,1-1.381,1.691l-1.6.325V105.6c0-1.31-.548-1.969-1.635-1.969s-1.635.659-1.635,1.969v10.8c0,1.3.548,1.953,1.635,1.953s1.635-.651,1.635-1.953v-1.453a1.732,1.732,0,0,1,1.381-1.691Z" transform="translate(-32.356 -100.77)"/><path class="a" d="M188.625,121.053H185.49V101.566a.515.515,0,0,1,.516-.516h2.619v8.065a.515.515,0,0,0,.516.516H192.2v-8.58h2.691a.515.515,0,0,1,.516.516v19.487H192.2V113a.515.515,0,0,0-.516-.516h-3.056Z" transform="translate(-38.256 -100.828)"/><g transform="translate(100.894 0.222)"><path class="a" d="M135.151,102.5a1.724,1.724,0,0,0-1.707-1.453h-3.135l-3.2,20.011H130l2.453-16.462,2.484,16.462H138.1Z" transform="translate(-127.11 -101.05)"/></g><path class="a" d="M214.336,101.05H224.1l-.413,1.572a1.732,1.732,0,0,1-1.667,1.286h-1.246a.515.515,0,0,0-.516.516v16.629H217.8a.691.691,0,0,1-.691-.691V103.908H213.82v-2.342A.515.515,0,0,1,214.336,101.05Z" transform="translate(-44.099 -100.828)"/></svg>