<svg xmlns="http://www.w3.org/2000/svg" width="161.888" height="54" viewBox="0 0 161.888 54"><defs><style>.a{fill:#fff;}.b{opacity:0;}.c{fill:#f8c1b8;}</style></defs><g transform="translate(0.063)"><g transform="translate(-0.063 9)"><path class="a" d="M.464,101.05H9.245l-.371,1.413a1.558,1.558,0,0,1-1.5,1.156H6.254a.463.463,0,0,0-.464.464V119.04H3.584a.622.622,0,0,1-.621-.621v-14.8H0v-2.106A.463.463,0,0,1,.464,101.05Z" transform="translate(0 -100.85)"/><path class="a" d="M31.247,119.037H28.42V101.661a.622.622,0,0,1,.621-.621h2.206v7.1a.622.622,0,0,0,.621.621h2.591V101.04h2.263a.622.622,0,0,1,.621.621v17.376H34.459v-7.082a.622.622,0,0,0-.621-.621H31.247Z" transform="translate(-8.131 -100.847)"/><path class="a" d="M61.01,108.639H64.9l-.286,1.335a1.552,1.552,0,0,1-1.521,1.228H61.481a.463.463,0,0,0-.464.464v4.8H65.9l-.286,1.342a1.552,1.552,0,0,1-1.521,1.228h-5.9V101.514a.463.463,0,0,1,.464-.464h7.239l-.286,1.342a1.552,1.552,0,0,1-1.521,1.228H61.481a.463.463,0,0,0-.464.464v4.555Z" transform="translate(-16.649 -100.85)"/><path class="a" d="M101.8,113.086,98.22,101.05h2.242a.932.932,0,0,1,.9.692l1.977,7.51,1.977-7.51a.932.932,0,0,1,.9-.692h1.977l-3.577,12.036v5.961h-2.356a.463.463,0,0,1-.464-.464v-5.5Z" transform="translate(-28.102 -100.85)"/><path class="a" d="M165.318,111.7v2.941q0,4.519-4.219,4.519t-4.219-4.519v-9.352q0-4.519,4.219-4.519t4.219,4.519v.493a1.558,1.558,0,0,1-1.242,1.521l-1.435.293v-2.477c0-1.178-.493-1.77-1.471-1.77s-1.471.593-1.471,1.77v9.709c0,1.171.493,1.756,1.471,1.756s1.471-.585,1.471-1.756V113.52A1.558,1.558,0,0,1,163.883,112Z" transform="translate(-44.886 -100.77)"/><path class="a" d="M188.31,119.04h-2.82V101.514a.463.463,0,0,1,.464-.464h2.356V108.3a.463.463,0,0,0,.464.464h2.748V101.05h2.42a.463.463,0,0,1,.464.464V119.04h-2.884V111.8a.463.463,0,0,0-.464-.464H188.31Z" transform="translate(-53.072 -100.85)"/><g transform="translate(90.742 0.2)"><path class="a" d="M134.342,102.356a1.55,1.55,0,0,0-1.535-1.306h-2.82l-2.877,18h2.6l2.206-14.806,2.234,14.806H137Z" transform="translate(-127.11 -101.05)"/></g><path class="a" d="M214.284,101.05h8.781l-.371,1.413a1.558,1.558,0,0,1-1.5,1.156h-1.121a.463.463,0,0,0-.464.464V119.04H217.4a.622.622,0,0,1-.621-.621v-14.8H213.82v-2.106A.463.463,0,0,1,214.284,101.05Z" transform="translate(-61.177 -100.85)"/></g><g class="b" transform="translate(60.36)"><path class="c" d="M100.408,50.741H95.283a5.333,5.333,0,0,1-5.333-5.333V42.766H90a1.839,1.839,0,0,1,1.835,1.878V45.5a3.741,3.741,0,0,0,3.734,3.734h3.969a3.2,3.2,0,0,0,3.2-3.2V25.854a3.211,3.211,0,0,0-3.2-3.2H94.455V26.94A2.136,2.136,0,0,1,93.377,28.8l-.8.457v-8.1h7.838a5.333,5.333,0,0,1,5.333,5.333V45.408A5.344,5.344,0,0,1,100.408,50.741Z" transform="translate(-86.102 -6.051)"/><path class="c" d="M125.158,50.741h-5.126a5.333,5.333,0,0,1-5.333-5.333V26.483a5.333,5.333,0,0,1,5.333-5.333h3.041a4.8,4.8,0,0,1,4.8,4.8v.992a2.136,2.136,0,0,1-1.078,1.856l-.8.457V25.862a3.211,3.211,0,0,0-3.2-3.2h-1.878a3.2,3.2,0,0,0-3.2,3.2V46.043a3.211,3.211,0,0,0,3.2,3.2h3.969a3.732,3.732,0,0,0,3.734-3.734v-.857a1.875,1.875,0,0,1,1.878-1.878h0v2.641A5.338,5.338,0,0,1,125.158,50.741Z" transform="translate(-93.184 -6.051)"/><path class="c" d="M112.275,11.351a2.136,2.136,0,0,1-2.135-2.135V7.731a3.927,3.927,0,1,0-1.87-.014v1.5a2.136,2.136,0,0,1-2.135,2.135h-4.961a2.13,2.13,0,0,0-1.828,1.035l-.507.842h18.454a2.13,2.13,0,0,0,1.828-1.035l.507-.842Zm-5.09-7.432a2.042,2.042,0,1,1,2.042,2.042A2.041,2.041,0,0,1,107.185,3.919Z" transform="translate(-88.646)"/><path class="c" d="M125.187,51.43h-1.349v1.1c0,4.783-1.214,6.9-4.319,8.4a8.158,8.158,0,0,1-4.019.635,14.529,14.529,0,0,0-3.891.328,12.485,12.485,0,0,0-6.468,3.584h0a12.485,12.485,0,0,0-6.468-3.584,14.529,14.529,0,0,0-3.891-.328,8.17,8.17,0,0,1-4.019-.635c-3.105-1.5-4.319-3.612-4.319-8.4v-1.1H85.1a.535.535,0,0,0-.535.535v.564c0,3.869.643,8.138,5.383,10.423a9.944,9.944,0,0,0,4.876.842,12.66,12.66,0,0,1,3.391.271,11.238,11.238,0,0,1,6.211,4.1l.307.364a.528.528,0,0,0,.807,0l.307-.364a11.264,11.264,0,0,1,6.211-4.1,12.66,12.66,0,0,1,3.391-.271,9.944,9.944,0,0,0,4.876-.842c4.747-2.284,5.383-6.546,5.383-10.423v-.564A.508.508,0,0,0,125.187,51.43Z" transform="translate(-84.56 -14.715)"/></g><g transform="translate(39.415 36.035)"><path class="a" d="M60.9,142.508V138.86h1v8.995h-1v-4.412H56.3v4.412h-1V138.86h1v3.648Z" transform="translate(-55.3 -138.703)"/><path class="a" d="M78.25,143.312a4.69,4.69,0,1,1-4.69-4.662A4.66,4.66,0,0,1,78.25,143.312Zm-8.374-.014a3.687,3.687,0,1,0,3.684-3.719A3.719,3.719,0,0,0,69.877,143.3Z" transform="translate(-59.183 -138.643)"/><path class="a" d="M88.33,147.855h-1v-8.067H85.16v-.928h5.368v.928h-2.2Z" transform="translate(-63.843 -138.703)"/><path class="a" d="M96.46,138.86h4.669v.928H97.467v2.67h3.555v.928H97.467v3.534h3.662v.928H96.467V138.86Z" transform="translate(-67.077 -138.703)"/><path class="a" d="M108.729,146.927h2.484v.928H107.73V138.86h1v8.067Z" transform="translate(-70.301 -138.703)"/><g transform="translate(48.216 2.306)"><path class="a" d="M122.84,141.87h1.128c1.242,0,2.284.457,2.284,1.849a1.511,1.511,0,0,1-.671,1.335,1.746,1.746,0,0,1,1.3,1.756c0,1.364-1.1,1.906-2.449,1.906h-1.585V141.87Zm.764,3.013h.293c.864,0,1.6-.1,1.6-1.164,0-1.035-.65-1.142-1.592-1.142h-.3Zm0,3.127h.764c.85,0,1.749-.207,1.749-1.249,0-1.064-1.021-1.214-1.856-1.214H123.6v2.463Z" transform="translate(-122.84 -141.87)"/><path class="a" d="M130.97,141.87h.878l1.742,3.048,1.742-3.048h.878l-2.242,3.9v2.941H133.2v-2.941Z" transform="translate(-125.166 -141.87)"/></g><path class="a" d="M148.187,138.86h1.692a4.89,4.89,0,0,1,3.505,1.085,4.622,4.622,0,0,1,.021,6.782,4.771,4.771,0,0,1-3.555,1.135H148.18v-9Zm1.728,8.067a3.788,3.788,0,0,0,2.841-.928,3.676,3.676,0,0,0-.05-5.333,3.857,3.857,0,0,0-2.791-.871h-.728v7.132Z" transform="translate(-81.874 -138.703)"/><path class="a" d="M168.524,140.767a3.834,3.834,0,0,0-2.741-1.192,3.72,3.72,0,0,0,.021,7.439,3.942,3.942,0,0,0,2.72-1.192v1.242a4.613,4.613,0,0,1-2.684.885,4.655,4.655,0,1,1,0-9.309,4.331,4.331,0,0,1,2.684.885Z" transform="translate(-85.585 -138.64)"/></g></g></svg>