<svg xmlns="http://www.w3.org/2000/svg" width="189" height="100" viewBox="0 0 189 100"><defs><style>.a{fill:#003759;}.b{fill:#e6a89f;}</style></defs><g transform="translate(-219.688 -465.289)"><path class="a" d="M299.126,543.559v-4.144h1.142v10.213h-1.142v-5.012h-5.243v5.012h-1.141V539.415h1.141v4.144Z" transform="translate(15.508 15.485)"/><path class="a" d="M312.523,544.565a5.338,5.338,0,1,1-5.339-5.3,5.3,5.3,0,0,1,5.339,5.3m-9.536-.013a4.2,4.2,0,1,0,4.2-4.226,4.229,4.229,0,0,0-4.2,4.226" transform="translate(17.441 15.454)"/><path class="a" d="M316.38,549.627h-1.142v-9.156h-2.472v-1.057h6.114v1.057h-2.5Z" transform="translate(19.759 15.485)"/><path class="a" d="M320.345,539.414h5.311v1.057h-4.172v3.034h4.048v1.057h-4.048v4.009h4.172v1.057h-5.311Z" transform="translate(21.368 15.485)"/><path class="a" d="M329.042,548.571h2.826v1.057H327.9V539.415h1.141Z" transform="translate(22.972 15.485)"/><path class="a" d="M338.034,541.434h1.281c1.416,0,2.6.515,2.6,2.1a1.723,1.723,0,0,1-.764,1.515,1.976,1.976,0,0,1,1.477,1.99c0,1.545-1.249,2.165-2.79,2.165h-1.809Zm.868,3.421h.33c.983,0,1.82-.112,1.82-1.319,0-1.176-.743-1.3-1.809-1.3H338.9Zm0,3.546h.869c.971,0,1.994-.237,1.994-1.423,0-1.205-1.158-1.379-2.109-1.379H338.9Z" transform="translate(25.123 15.906)"/><path class="a" d="M343.485,541.434h1l1.987,3.462,1.983-3.462h1l-2.554,4.432v3.339h-.869v-3.339Z" transform="translate(26.28 15.907)"/><path class="a" d="M355.028,539.415h1.93a5.588,5.588,0,0,1,3.992,1.232,5.234,5.234,0,0,1,.028,7.693,5.453,5.453,0,0,1-4.049,1.288h-1.9ZM357,548.571a4.309,4.309,0,0,0,3.234-1.057,4.167,4.167,0,0,0-.056-6.055,4.409,4.409,0,0,0-3.179-.988h-.828v8.1Z" transform="translate(28.731 15.485)"/><path class="a" d="M372.112,541.68a4.393,4.393,0,0,0-3.124-1.354,4.227,4.227,0,0,0,.027,8.453,4.5,4.5,0,0,0,3.1-1.354v1.408a5.3,5.3,0,0,1-8.4-4.24,5.35,5.35,0,0,1,5.339-5.324,4.952,4.952,0,0,1,3.056,1Z" transform="translate(30.575 15.454)"/><path class="a" d="M290.5,483.087h10l-.425,1.609a1.767,1.767,0,0,1-1.709,1.312h-1.274a.53.53,0,0,0-.531.529v16.981h-2.507a.705.705,0,0,1-.707-.7V486.008h-3.373v-2.392a.529.529,0,0,1,.53-.528" transform="translate(14.92 3.718)"/><path class="a" d="M312.244,503.519h-3.215V483.793a.706.706,0,0,1,.707-.706h2.508v8.057a.706.706,0,0,0,.707.7H315.9v-8.762h2.579a.707.707,0,0,1,.708.706v19.726H315.9v-8.043a.706.706,0,0,0-.707-.706h-2.952Z" transform="translate(18.966 3.718)"/><path class="a" d="M332.2,491.706h4.43l-.324,1.512a1.769,1.769,0,0,1-1.73,1.4H332.73a.529.529,0,0,0-.53.528V500.6h5.558l-.326,1.526a1.767,1.767,0,0,1-1.727,1.4h-6.719v-19.9a.529.529,0,0,1,.529-.528h8.244l-.326,1.524a1.765,1.765,0,0,1-1.727,1.4H332.73a.53.53,0,0,0-.53.528Z" transform="translate(23.202 3.718)"/><path class="a" d="M293.471,524.913,289.4,511.25h2.553a1.058,1.058,0,0,1,1.026.788l2.25,8.529,2.25-8.529a1.058,1.058,0,0,1,1.024-.788h2.255l-4.071,13.663v6.767H294a.53.53,0,0,1-.53-.528Z" transform="translate(14.799 9.601)"/><path class="a" d="M338.334,523.475v3.344q0,5.128-4.8,5.129t-4.8-5.129V516.191q0-5.13,4.8-5.131t4.8,5.131v.556a1.764,1.764,0,0,1-1.412,1.726l-1.632.334V515.99q0-2.009-1.672-2.009t-1.672,2.009v11.028q0,1.995,1.672,2t1.672-2v-1.482a1.766,1.766,0,0,1,1.412-1.727Z" transform="translate(23.148 9.561)"/><path class="a" d="M351.126,531.68h-3.215v-19.9a.529.529,0,0,1,.531-.528h2.684v8.233a.53.53,0,0,0,.53.528h3.129V511.25h2.754a.53.53,0,0,1,.532.528v19.9h-3.286v-8.219a.531.531,0,0,0-.531-.529h-3.128Z" transform="translate(27.22 9.601)"/><path class="a" d="M317,512.734a1.766,1.766,0,0,0-1.744-1.484H312.05l-3.273,20.43h2.957l2.514-16.812,2.543,16.812h3.245Z" transform="translate(18.912 9.601)"/><path class="a" d="M367.439,511.25h10l-.426,1.608a1.767,1.767,0,0,1-1.709,1.313h-1.273a.529.529,0,0,0-.531.528V531.68h-2.508a.7.7,0,0,1-.707-.7v-16.8h-3.373v-2.392a.53.53,0,0,1,.53-.528" transform="translate(31.253 9.601)"/><path class="b" d="M240.386,529H232.6a8.083,8.083,0,0,1-8.094-8.072v-4h.072a2.789,2.789,0,0,1,2.782,2.848v1.3a5.678,5.678,0,0,0,5.669,5.652h6.027a4.85,4.85,0,0,0,4.855-4.844V491.323a4.863,4.863,0,0,0-4.855-4.843h-7.713v6.485a3.23,3.23,0,0,1-1.64,2.809l-1.215.685V484.2h11.9a8.082,8.082,0,0,1,8.093,8.072v28.65A8.082,8.082,0,0,1,240.386,529" transform="translate(1.023 3.951)"/><path class="b" d="M262.516,529h-7.784a8.083,8.083,0,0,1-8.094-8.072v-28.65a8.083,8.083,0,0,1,8.094-8.072h4.613a7.275,7.275,0,0,1,7.286,7.264v1.5a3.231,3.231,0,0,1-1.641,2.809l-1.215.685v-5.137a4.864,4.864,0,0,0-4.856-4.843h-2.855a4.851,4.851,0,0,0-4.858,4.843v30.551a4.866,4.866,0,0,0,4.858,4.844h6.025a5.658,5.658,0,0,0,5.666-5.652v-1.3a2.852,2.852,0,0,1,2.856-2.848v4A8.083,8.083,0,0,1,262.516,529" transform="translate(5.721 3.951)"/><path class="b" d="M252.852,482.472a3.233,3.233,0,0,1-3.237-3.229V477a5.956,5.956,0,1,0-2.856-.018v2.265a3.233,3.233,0,0,1-3.237,3.229h-7.537a3.239,3.239,0,0,0-2.776,1.568l-.77,1.279H260.46a3.24,3.24,0,0,0,2.776-1.567l.77-1.28Zm-7.729-11.244a3.1,3.1,0,1,1,3.1,3.091,3.1,3.1,0,0,1-3.1-3.091" transform="translate(2.707 0)"/><path class="b" d="M281.363,511.266h-2.046v1.662c0,7.24-1.839,10.447-6.558,12.713-2.256,1.082-4.037.959-6.1.959a22.326,22.326,0,0,0-5.907.492,19.006,19.006,0,0,0-9.821,5.427h0a19.007,19.007,0,0,0-9.818-5.427,22.33,22.33,0,0,0-5.907-.492c-2.064,0-3.845.123-6.1-.959-4.719-2.266-6.558-5.473-6.558-12.713v-1.662H220.5a.807.807,0,0,0-.809.806v.856c0,5.859.972,12.316,8.176,15.775a15.184,15.184,0,0,0,7.407,1.272,19.308,19.308,0,0,1,5.145.409c4.524,1.131,7.043,3.424,9.429,6.2l.47.546a.81.81,0,0,0,1.228,0l.473-.546c2.387-2.778,4.9-5.07,9.429-6.2a19.31,19.31,0,0,1,5.146-.409A15.177,15.177,0,0,0,274,528.7c7.206-3.459,8.176-9.915,8.176-15.775v-.855a.808.808,0,0,0-.809-.807" transform="translate(0 9.604)"/></g></svg>