<svg id="Group_471" data-name="Group 471" xmlns="http://www.w3.org/2000/svg" width="30.475" height="40" viewBox="0 0 30.475 40">
  <path id="Path_397" data-name="Path 397" d="M97.7,43.069H93.9a3.951,3.951,0,0,1-3.95-3.95V37.162h.037a1.362,1.362,0,0,1,1.359,1.391v.635a2.771,2.771,0,0,0,2.766,2.766h2.94a2.372,2.372,0,0,0,2.369-2.369V24.635a2.379,2.379,0,0,0-2.369-2.369H93.287v3.173a1.582,1.582,0,0,1-.8,1.375l-.592.338v-6H97.7a3.951,3.951,0,0,1,3.95,3.95V39.119A3.958,3.958,0,0,1,97.7,43.069Z" transform="translate(-87.1 -9.966)" fill="#20415c"/>
  <path id="Path_398" data-name="Path 398" d="M122.447,43.069h-3.8a3.951,3.951,0,0,1-3.95-3.95V25.1a3.951,3.951,0,0,1,3.95-3.95H120.9a3.554,3.554,0,0,1,3.554,3.554v.735a1.582,1.582,0,0,1-.8,1.375l-.592.338V24.64a2.379,2.379,0,0,0-2.369-2.369h-1.391a2.372,2.372,0,0,0-2.369,2.369V39.589a2.379,2.379,0,0,0,2.369,2.369h2.94a2.765,2.765,0,0,0,2.766-2.766v-.635a1.389,1.389,0,0,1,1.391-1.391h0v1.957A3.954,3.954,0,0,1,122.447,43.069Z" transform="translate(-98.762 -9.966)" fill="#20415c"/>
  <path id="Path_399" data-name="Path 399" d="M108.792,8.408a1.582,1.582,0,0,1-1.581-1.581v-1.1a2.909,2.909,0,1,0-1.385-.011v1.11a1.582,1.582,0,0,1-1.581,1.581h-3.675a1.578,1.578,0,0,0-1.354.767L98.84,9.8h13.67a1.578,1.578,0,0,0,1.354-.767l.375-.624Zm-3.77-5.5a1.512,1.512,0,1,1,1.512,1.512A1.512,1.512,0,0,1,105.022,2.9Z" transform="translate(-91.289)" fill="#20415c"/>
  <path id="Path_400" data-name="Path 400" d="M114.654,51.43h-1v.814c0,3.543-.9,5.114-3.2,6.219a6.043,6.043,0,0,1-2.977.471,10.763,10.763,0,0,0-2.882.243,9.249,9.249,0,0,0-4.791,2.655h0a9.249,9.249,0,0,0-4.791-2.655,10.763,10.763,0,0,0-2.882-.243,6.052,6.052,0,0,1-2.977-.471c-2.3-1.11-3.2-2.676-3.2-6.219V51.43h-1a.4.4,0,0,0-.4.4v.418c0,2.866.476,6.028,3.987,7.721a7.366,7.366,0,0,0,3.612.624,9.378,9.378,0,0,1,2.512.2,8.325,8.325,0,0,1,4.6,3.035l.227.27a.391.391,0,0,0,.6,0l.227-.27a8.344,8.344,0,0,1,4.6-3.035,9.378,9.378,0,0,1,2.512-.2,7.366,7.366,0,0,0,3.612-.624c3.517-1.692,3.987-4.849,3.987-7.721v-.418A.377.377,0,0,0,114.654,51.43Z" transform="translate(-84.56 -24.234)" fill="#20415c"/>
</svg>
