<svg class="conn_ani" xmlns="http://www.w3.org/2000/svg" width="45.713" height="60" viewBox="0 0 45.713 60">
    <path d="M101.57,54.028h-5.7A5.926,5.926,0,0,1,89.95,48.1V45.168h.056a2.044,2.044,0,0,1,2.039,2.086v.952a4.157,4.157,0,0,0,4.148,4.148h4.41a3.558,3.558,0,0,0,3.554-3.554V26.377a3.568,3.568,0,0,0-3.554-3.554H94.955v4.759a2.373,2.373,0,0,1-1.2,2.062l-.888.508v-9h8.709a5.926,5.926,0,0,1,5.925,5.925V48.1A5.938,5.938,0,0,1,101.57,54.028Z" transform="translate(-85.675 -4.374)" fill="#20415c" />
    <path d="M126.32,54.028h-5.7A5.926,5.926,0,0,1,114.7,48.1V27.075a5.926,5.926,0,0,1,5.925-5.925H124a5.332,5.332,0,0,1,5.33,5.33v1.1a2.373,2.373,0,0,1-1.2,2.062l-.888.508V26.385a3.568,3.568,0,0,0-3.554-3.554h-2.086a3.558,3.558,0,0,0-3.554,3.554V48.809a3.568,3.568,0,0,0,3.554,3.554h4.41a4.147,4.147,0,0,0,4.148-4.148v-.952a2.084,2.084,0,0,1,2.086-2.086h0v2.935A5.931,5.931,0,0,1,126.32,54.028Z" transform="translate(-90.793 -4.374)" fill="#20415c" />
    <path d="M113.768,12.612A2.373,2.373,0,0,1,111.4,10.24V8.59a4.363,4.363,0,1,0-2.078-.016V10.24a2.373,2.373,0,0,1-2.372,2.372h-5.513a2.366,2.366,0,0,0-2.031,1.15l-.563.936h20.5a2.366,2.366,0,0,0,2.031-1.15l.563-.936Zm-5.656-8.257a2.269,2.269,0,1,1,2.269,2.269A2.268,2.268,0,0,1,108.113,4.355Z" transform="translate(-87.513)" fill="#20415c" />
    <path d="M129.7,51.43h-1.5v1.222c0,5.314-1.348,7.67-4.8,9.328a9.064,9.064,0,0,1-4.466.706,16.144,16.144,0,0,0-4.323.365,13.873,13.873,0,0,0-7.186,3.982h0a13.873,13.873,0,0,0-7.186-3.982,16.144,16.144,0,0,0-4.323-.365,9.078,9.078,0,0,1-4.466-.706c-3.45-1.666-4.8-4.014-4.8-9.328V51.43h-1.5a.594.594,0,0,0-.595.595v.627c0,4.3.714,9.043,5.981,11.581a11.049,11.049,0,0,0,5.418.936,14.067,14.067,0,0,1,3.768.3,12.487,12.487,0,0,1,6.9,4.553l.341.4a.586.586,0,0,0,.9,0l.341-.4a12.515,12.515,0,0,1,6.9-4.553,14.067,14.067,0,0,1,3.768-.3,11.049,11.049,0,0,0,5.418-.936c5.275-2.538,5.981-7.274,5.981-11.581v-.627A.565.565,0,0,0,129.7,51.43Z" transform="translate(-84.56 -10.635)" fill="#20415c" />
</svg>