<svg xmlns="http://www.w3.org/2000/svg" width="59.044" height="62.492" viewBox="0 0 59.044 62.492"><defs><style>.a{fill:#fff;fill-rule:evenodd;}.b{fill:none;stroke:#fff;stroke-width:1.5px;}</style></defs><g transform="translate(-3.822 -2.788)"><path class="a" d="M36.665,12.154h1.106v-6.9c0-1.3.056-1.638,1.3-1.834v-.63H35.349v.63c1.33.168,1.6.532,1.6,1.834V9.186h-.112l-4.816-6.4H28.979v.658c1.134.028,1.4.5,1.4,1.134V9.326c0,1.33-.154,1.862-1.4,2.03V12h3.71v-.644C31.345,11.2,31.2,10.726,31.2,9.4V5.126h.112Z"/><path class="a" d="M50.269,19.1h.342v-3.1c0-.546.03-.57.564-.666v-.276h-1.6v.276c.57.084.672.12.672.666V17.95H50.2l-2.07-2.9H46.932v.294c.486.012.606.186.606.408V17.89c0,.552-.072.744-.606.834V19h1.59v-.276c-.576-.084-.624-.222-.624-.774V15.916h.054ZM52,19h3.444l.03-1.362-.246-.006c-.21.7-.384,1.032-1.176,1.032h-.8V17.122h.276c.444,0,.582.036.732.66h.222V16.15h-.222c-.15.624-.288.636-.732.636h-.276v-1.4h.8c.672,0,.762.234.972.906l.246-.006-.018-1.236H52v.294c.5.018.636.072.636.258v2.844c0,.186-.132.24-.636.258Z" transform="translate(27.07 -31.206) rotate(45)"/><path class="a" d="M16.357,20.1H16.7v-3.1c0-.546.03-.57.564-.666v-.276h-1.6v.276c.57.084.672.12.672.666V18.95h-.054l-2.07-2.9H13.021v.294c.486.012.606.186.606.408V18.89c0,.552-.072.744-.606.834V20h1.59v-.276c-.576-.084-.624-.222-.624-.774V16.916h.054Zm4.306-3.09-.8,2.064h-.054l-.7-2.364c-.072-.234.006-.33.4-.378v-.276h-1.65v.276c.42.09.54.168.618.426L19.5,20.1h.36l.972-2.568.822,2.568h.36l1-3.006c.18-.54.318-.678.726-.762v-.276H22.289v.276c.564.084.546.162.348.768L22,19.07h-.054L21.2,16.676c-.06-.192.042-.3.444-.348v-.276H20.009v.276c.4.09.492.162.582.444Z" transform="translate(-7.397 18.291) rotate(-45)"/><path class="a" d="M46.629,54.12h.2l.324-.21A2.168,2.168,0,0,0,48,54.1a1.272,1.272,0,0,0,1.374-1.308c0-.744-.612-.936-1.158-1.122-.642-.216-.924-.4-.924-.768a.605.605,0,0,1,.66-.594,1,1,0,0,1,.978.786h.258V49.926h-.192l-.21.186a1.784,1.784,0,0,0-.72-.156A1.243,1.243,0,0,0,46.7,51.162c0,.738.612.924,1.158,1.116.726.258.99.438.99.846,0,.294-.2.624-.738.624a1.294,1.294,0,0,1-1.224-.918h-.258ZM50.347,54h3.444l.03-1.362-.246-.006c-.21.7-.384,1.032-1.176,1.032h-.8V52.122h.276c.444,0,.582.036.732.66h.222V51.15h-.222c-.15.624-.288.636-.732.636H51.6v-1.4h.8c.672,0,.762.234.972.906l.246-.006L53.6,50.052H50.347v.294c.5.018.636.072.636.258v2.844c0,.186-.132.24-.636.258Z" transform="translate(122.525 53.295) rotate(135)"/><path class="a" d="M14.717,52.12h.2l.324-.21a2.168,2.168,0,0,0,.84.186,1.272,1.272,0,0,0,1.374-1.308c0-.744-.612-.936-1.158-1.122-.642-.216-.924-.4-.924-.768a.605.605,0,0,1,.66-.594,1,1,0,0,1,.978.786h.258V47.926H17.08l-.21.186a1.784,1.784,0,0,0-.72-.156,1.243,1.243,0,0,0-1.362,1.206c0,.738.612.924,1.158,1.116.726.258.99.438.99.846,0,.294-.2.624-.738.624a1.294,1.294,0,0,1-1.224-.918h-.258Zm6.293-3.114-.8,2.064h-.054l-.7-2.364c-.072-.234.006-.33.4-.378v-.276h-1.65v.276c.42.09.54.168.618.426l1.02,3.342h.36l.972-2.568L22,52.1h.36l1-3.006c.18-.54.318-.678.726-.762v-.276H22.635v.276c.564.084.546.162.348.768l-.642,1.974h-.054l-.744-2.394c-.06-.192.042-.3.444-.348v-.276H20.355v.276c.4.09.492.162.582.444Z" transform="translate(-2.251 99.114) rotate(-135)"/><path class="a" d="M30.138,65.28h.588l.574-.5a4.84,4.84,0,0,0,2.1.448,3.052,3.052,0,0,0,3.332-3.164c0-1.736-1.442-2.282-2.716-2.7-1.554-.49-2.156-.854-2.156-1.736a1.3,1.3,0,0,1,1.4-1.3c1.036,0,1.778.7,2.352,1.988H36.3V55.494H35.71l-.434.476a4.132,4.132,0,0,0-1.792-.406,2.939,2.939,0,0,0-3.234,2.912c0,1.722,1.442,2.3,2.856,2.744,1.6.532,2.156.924,2.156,1.848a1.41,1.41,0,0,1-1.6,1.4c-1.162,0-2.114-.784-2.856-2.366h-.672Z" transform="translate(66.869 120.774) rotate(180)"/><path class="a" d="M54.074,39h8.26l.112-3.374-.672-.014c-.56,1.708-1.05,2.646-3,2.646H57.392V34.646h.434c.966,0,1.274.126,1.694,1.484h.574V32.49H59.52c-.42,1.358-.728,1.428-1.694,1.428h-.434v-3.4h1.456c1.638,0,2.016.812,2.534,2.38l.658-.014-.084-3.094H54.074v.658c1.106.042,1.33.168,1.33.6V37.74c0,.434-.224.56-1.33.6Z" transform="translate(92.654 -23.866) rotate(90)"/><path class="a" d="M8.113,31.476l-1.68,4.382h-.14L4.669,30.286c-.154-.532-.056-.784.84-.868v-.63H1.323v.63c.9.2,1.134.364,1.33.994l2.436,7.742H6.545l1.988-5.348,1.708,5.348H11.7l2.268-6.93c.434-1.288.742-1.582,1.722-1.806v-.63h-3.6v.63c1.232.2,1.316.462.9,1.82l-1.428,4.634h-.14L9.765,30.244c-.14-.462.084-.742,1.05-.826v-.63H6.559v.63c.84.154.994.322,1.232,1.022Z" transform="translate(-24.966 41.976) rotate(-90)"/></g><path class="b" d="M-9034.046,1169.977l6,6,6-6" transform="translate(9058 -1141)"/></svg>