<svg xmlns="http://www.w3.org/2000/svg" width="60.951" height="80" viewBox="0 0 60.951 80"><defs><style>.a{fill:#f8c1b8;}</style></defs><path class="a" d="M105.444,64.988H97.85a7.9,7.9,0,0,1-7.9-7.9V53.174h.074a2.725,2.725,0,0,1,2.718,2.782v1.269a5.543,5.543,0,0,0,5.531,5.531h5.88a4.744,4.744,0,0,0,4.738-4.738V28.12a4.757,4.757,0,0,0-4.738-4.738h-7.53v6.346a3.164,3.164,0,0,1-1.6,2.75l-1.185.677v-12h11.613a7.9,7.9,0,0,1,7.9,7.9V57.087A7.917,7.917,0,0,1,105.444,64.988Z" transform="translate(-84.25 1.218)"/><path class="a" d="M130.194,64.988H122.6a7.9,7.9,0,0,1-7.9-7.9V29.05a7.9,7.9,0,0,1,7.9-7.9h4.505a7.109,7.109,0,0,1,7.107,7.107v1.47a3.164,3.164,0,0,1-1.6,2.75l-1.185.677V28.13a4.757,4.757,0,0,0-4.738-4.738h-2.782a4.744,4.744,0,0,0-4.738,4.738v29.9a4.757,4.757,0,0,0,4.738,4.738h5.88a5.529,5.529,0,0,0,5.531-5.531V55.966a2.778,2.778,0,0,1,2.782-2.782h0V57.1A7.908,7.908,0,0,1,130.194,64.988Z" transform="translate(-82.824 1.218)"/><path class="a" d="M118.744,16.816a3.164,3.164,0,0,1-3.162-3.162v-2.2a5.818,5.818,0,1,0-2.771-.021v2.221a3.164,3.164,0,0,1-3.162,3.162H102.3a3.155,3.155,0,0,0-2.707,1.534L98.84,19.6h27.339a3.155,3.155,0,0,0,2.707-1.534l.751-1.248ZM111.2,5.806a3.025,3.025,0,1,1,3.025,3.025A3.024,3.024,0,0,1,111.2,5.806Z" transform="translate(-83.737)"/><path class="a" d="M144.748,51.43h-2v1.629c0,7.086-1.8,10.227-6.4,12.437-2.2,1.058-3.934.941-5.954.941a21.525,21.525,0,0,0-5.764.487,18.5,18.5,0,0,0-9.582,5.309h0a18.5,18.5,0,0,0-9.582-5.309,21.525,21.525,0,0,0-5.764-.487c-2.009,0-3.755.116-5.954-.941-4.6-2.221-6.4-5.351-6.4-12.437V51.43h-2a.792.792,0,0,0-.793.793v.836c0,5.732.952,12.057,7.974,15.441a14.732,14.732,0,0,0,7.223,1.248,18.755,18.755,0,0,1,5.024.4c4.421,1.11,6.874,3.353,9.2,6.071l.455.539a.782.782,0,0,0,1.2,0l.455-.539c2.327-2.718,4.791-4.96,9.2-6.071a18.756,18.756,0,0,1,5.024-.4,14.732,14.732,0,0,0,7.223-1.248c7.033-3.384,7.974-9.7,7.974-15.441v-.836A.753.753,0,0,0,144.748,51.43Z" transform="translate(-84.56 2.963)"/></svg>