<svg xmlns="http://www.w3.org/2000/svg" width="92.219" height="10.351" viewBox="0 0 92.219 10.351"><defs><style>.a{fill:#fff;}</style></defs><path class="a" d="M61.531,142.916V138.86h1.111v10H61.531v-4.905h-5.12v4.905H55.3v-10h1.111v4.056Z" transform="translate(-55.3 -138.685)"/><path class="a" d="M79.3,143.833a5.215,5.215,0,1,1-5.215-5.183A5.181,5.181,0,0,1,79.3,143.833Zm-9.311-.016a4.1,4.1,0,1,0,4.1-4.135A4.135,4.135,0,0,0,69.989,143.817Z" transform="translate(-58.099 -138.642)"/><path class="a" d="M88.684,148.861H87.573v-8.969H85.16V138.86h5.969v1.032H88.684Z" transform="translate(-61.458 -138.685)"/><path class="a" d="M96.46,138.86h5.191v1.032H97.579v2.969h3.953v1.032H97.579v3.929h4.072v1.032H96.468V138.86Z" transform="translate(-63.789 -138.685)"/><path class="a" d="M108.841,147.829H111.6v1.032H107.73v-10h1.111v8.969Z" transform="translate(-66.113 -138.685)"/><g transform="translate(53.61 2.564)"><path class="a" d="M122.84,141.87h1.254c1.381,0,2.54.508,2.54,2.056a1.68,1.68,0,0,1-.746,1.484,1.941,1.941,0,0,1,1.445,1.953c0,1.516-1.222,2.119-2.723,2.119h-1.762V141.87Zm.849,3.35h.325c.96,0,1.778-.111,1.778-1.294,0-1.151-.722-1.27-1.77-1.27h-.333Zm0,3.477h.849c.945,0,1.945-.23,1.945-1.389,0-1.183-1.135-1.349-2.064-1.349h-.738V148.7Z" transform="translate(-122.84 -141.87)"/><path class="a" d="M130.97,141.87h.976l1.937,3.389,1.937-3.389h.976l-2.492,4.342v3.27h-.849v-3.27Z" transform="translate(-124.517 -141.87)"/></g><path class="a" d="M148.188,138.86h1.881a5.437,5.437,0,0,1,3.9,1.207,5.139,5.139,0,0,1,.024,7.541,5.305,5.305,0,0,1-3.953,1.262H148.18V138.86Zm1.921,8.969a4.212,4.212,0,0,0,3.159-1.032,4.087,4.087,0,0,0-.056-5.929,4.289,4.289,0,0,0-3.1-.968h-.81v7.93Z" transform="translate(-74.456 -138.685)"/><path class="a" d="M169.349,141.005a4.263,4.263,0,0,0-3.048-1.326,4.137,4.137,0,0,0,.024,8.271,4.383,4.383,0,0,0,3.024-1.326v1.381a5.129,5.129,0,0,1-2.985.984,5.175,5.175,0,1,1,0-10.351,4.816,4.816,0,0,1,2.985.984Z" transform="translate(-77.131 -138.64)"/></svg>