<svg xmlns="http://www.w3.org/2000/svg" width="134.039" height="1179.534" viewBox="0 0 134.039 1179.534"><defs><style>.a{fill:#fbdad4;}</style></defs><g transform="translate(-239.212 1583.287) rotate(-90)"><path class="a" d="M407.148,239.3h63.965l-2.73,10.32a11.3,11.3,0,0,1-10.935,8.422h-8.156a3.385,3.385,0,0,0-3.379,3.4V370.408H429.852a4.532,4.532,0,0,1-4.527-4.527V258.041H403.753V242.695a3.388,3.388,0,0,1,3.4-3.4" transform="translate(0 1.361)"/><path class="a" d="M433.21,370.408H412.636V243.826a4.532,4.532,0,0,1,4.527-4.527H433.21V291a4.531,4.531,0,0,0,4.527,4.527h18.875V239.3h16.511a4.532,4.532,0,0,1,4.527,4.527V370.408H456.611V318.793a4.522,4.522,0,0,0-4.527-4.527H433.21Z" transform="translate(138.971 1.361)"/><path class="a" d="M442.509,294.61h28.346l-2.08,9.7a11.307,11.307,0,0,1-11.052,8.955H445.905a3.389,3.389,0,0,0-3.4,3.4v35h35.57L476,361.455a11.312,11.312,0,0,1-11.069,8.955H421.937V242.7a3.388,3.388,0,0,1,3.4-3.4h52.747L476,249.087a11.312,11.312,0,0,1-11.069,8.955H445.905a3.4,3.4,0,0,0-3.4,3.4Z" transform="translate(284.481 1.377)"/><path class="a" d="M460.512,326.983,434.447,239.3h16.345a6.819,6.819,0,0,1,6.575,5.06l14.381,54.728,14.4-54.728a6.789,6.789,0,0,1,6.574-5.06h14.414l-26.049,87.683v43.426H463.908a3.389,3.389,0,0,1-3.4-3.4Z" transform="translate(480.194 1.361)"/><path class="a" d="M514.215,318.873v21.455q0,32.906-30.726,32.923-30.734,0-30.709-32.923V272.135q0-32.906,30.709-32.923,30.708,0,30.726,32.923V275.7a11.316,11.316,0,0,1-9.038,11.085l-10.437,2.13V270.836q0-12.883-10.7-12.883-10.686,0-10.7,12.883v70.773q0,12.783,10.7,12.8,10.711,0,10.7-12.8v-9.52A11.329,11.329,0,0,1,503.779,321Z" transform="translate(767.006 0)"/><path class="a" d="M482.29,370.408H461.717V242.695a3.4,3.4,0,0,1,3.412-3.4H482.29v52.83a3.392,3.392,0,0,0,3.412,3.4h20.024V239.3h17.61a3.392,3.392,0,0,1,3.412,3.4V370.408H505.725V317.662a3.424,3.424,0,0,0-3.412-3.4H482.29Z" transform="translate(906.822 1.361)"/><path class="a" d="M496.109,248.836a11.318,11.318,0,0,0-11.168-9.537H464.418L443.479,370.408H462.4l16.079-107.873L494.76,370.408h20.773Z" transform="translate(621.496 1.361)"/><path class="a" d="M473.967,239.3h63.965l-2.73,10.32a11.3,11.3,0,0,1-10.935,8.422h-8.139a3.4,3.4,0,0,0-3.4,3.4V370.408H496.687a4.521,4.521,0,0,1-4.527-4.527V258.041H470.572V242.695a3.4,3.4,0,0,1,3.4-3.4" transform="translate(1045.354 1.361)"/></g></svg>