<svg xmlns="http://www.w3.org/2000/svg" width="890" height="222.307" viewBox="0 0 890 222.307">
  <g id="Group_10569" data-name="Group 10569" transform="translate(-241.74 83.026)">
    <path id="Path_489" data-name="Path 489" d="M351.792,62.754a2.117,2.117,0,0,1,1.63.466,1.989,1.989,0,0,1,.815,1.513,2.661,2.661,0,0,1-.524,1.746q-6.172,7.564-13.038,7.567h-.466a12.977,12.977,0,0,1-4.889-.989,19.878,19.878,0,0,1-5.064-3.143q-2.619-2.156-4.6-4.133a63.339,63.339,0,0,1-4.947-5.821q-2.969-3.842-4.715-6.17t-5.122-7.218q-4.889-6.752-7.625-10.477t-7.392-9.2a82.924,82.924,0,0,0-8.847-9.08,54.464,54.464,0,0,1-13.969,1.63q-14.2,58.087-16.414,73.8c.233-.545.5-1.164.815-1.863a2.22,2.22,0,0,1,2.969-1.106,2.1,2.1,0,0,1,1.164,1.281,2.311,2.311,0,0,1-.058,1.688q-1.164,2.675-2.037,4.307t-1.688,2.91a7.3,7.3,0,0,1-1.572,1.863,2.56,2.56,0,0,1-1.572.582,2.061,2.061,0,0,1-.931-.233,2.537,2.537,0,0,1-1.513-1.222,9.418,9.418,0,0,1-.466-3.725,51.585,51.585,0,0,1,.931-8.207q.931-5.355,2.852-14.551t5.064-22.817q3.143-13.62,7.916-33.061a21.441,21.441,0,0,1-9.429-3.027,10.209,10.209,0,0,1-4.424-5.355,5.551,5.551,0,0,1,2.1-6.752q5.006-3.958,15.483-.233,1.511-5.937,2.91-11.99Q285.147-49,287.824-60.875a2.413,2.413,0,0,1,.989-1.455,1.988,1.988,0,0,1,1.688-.291,2.2,2.2,0,0,1,1.4.99,2.539,2.539,0,0,1,.349,1.688q-2.677,11.99-12.689,52.734Q277.347,1.408,276.416,5.6q2.908,1.4,5.937,3.143a60.519,60.519,0,0,1,5.7,4.074A73.864,73.864,0,0,0,313.085-.224q12.223-9.429,21.536-25.261,7.448-12.572,9.2-24.1t-2.677-18.742q-6.636-10.477-25.261-9.2a78.089,78.089,0,0,0-19.324,3.9A102.713,102.713,0,0,0,277.638-65.3a92.685,92.685,0,0,0-16.065,11.525A54.09,54.09,0,0,0,250.456-40.5q-7.45,13.038-1.513,24.8A2.3,2.3,0,0,1,249-14.019a2.135,2.135,0,0,1-1.106,1.281,2.123,2.123,0,0,1-1.688.116,2.344,2.344,0,0,1-1.339-1.106Q237.884-27.7,246.5-42.715q5.588-9.779,16.822-18.509a103.7,103.7,0,0,1,25.145-14.319,89.735,89.735,0,0,1,27.182-6.519q21.3-1.4,29.219,11.408,5.122,8.268,3.434,21.012t-9.837,26.484A92.966,92.966,0,0,1,310.408,7.11a71.338,71.338,0,0,1-18.277,9.313,100.221,100.221,0,0,1,8.207,8.847q4.365,5.239,6.985,8.789t7.159,9.953q3.725,5.122,5.588,7.741t5.122,6.635a58.612,58.612,0,0,0,5.413,6,28.242,28.242,0,0,0,4.831,3.551,11.023,11.023,0,0,0,4.889,1.688q4.889.114,10.011-6.053A2.21,2.21,0,0,1,351.792,62.754ZM258.838,9.438a4.67,4.67,0,0,0,1.63,2.212,12.764,12.764,0,0,0,3.667,1.921,23.61,23.61,0,0,0,5.413,1.222q.812-3.257,1.63-6.519a22.836,22.836,0,0,0-7.916-1.863,6.274,6.274,0,0,0-3.842,1.048A1.77,1.77,0,0,0,258.838,9.438Zm15.25,5.471a43.231,43.231,0,0,0,8.265-.815q-1.164-.815-2.328-1.513-2.212-1.281-4.773-2.561Q274.437,13.4,274.088,14.909Z" transform="translate(0 0.51)" fill="#f8c1b8"/>
    <path id="Path_490" data-name="Path 490" d="M343.515-18.371a2.158,2.158,0,0,1,1.688.349,2,2,0,0,1,.873,1.455,2.33,2.33,0,0,1-.351,1.63q-13.157,18.4-23.981,26.076a14.774,14.774,0,0,1-8.5,3.027,9.557,9.557,0,0,1-5.7-1.746,10.344,10.344,0,0,1-2.5-2.794,17.525,17.525,0,0,1-1.921-4.889,24.183,24.183,0,0,1-.293-8.265,58.055,58.055,0,0,1,2.621-11.641v-.116q3.257-10.591,7.916-16.763t8.38-6.286a3.179,3.179,0,0,1,3.492,2.328q1.283,3.378-3.027,9.546a72.758,72.758,0,0,1-12.687,13.271,58.135,58.135,0,0,0-1.979,8.382,28.313,28.313,0,0,0-.407,6.112,14.249,14.249,0,0,0,.813,3.958,10.408,10.408,0,0,0,1.166,2.386,6.374,6.374,0,0,0,1.1,1.164q3.495,2.559,8.964-1.4Q329.428.2,342-17.5A2.5,2.5,0,0,1,343.515-18.371ZM320.93-33.447q-4.074,2.561-8.031,11.059Q319.648-29.137,320.93-33.447Z" transform="translate(37.555 27.563)" fill="#f8c1b8"/>
    <path id="Path_491" data-name="Path 491" d="M376.445-69.466q3.024,3.029-3.027,21.42-.466,1.4-1.28,3.842-2.561,7.8-4.193,12.456t-5.122,13.038q-3.49,8.382-7.565,16.065-3.378,16.065-6.4,34.225-5.239,31.082-5.588,42.141a2.571,2.571,0,0,1,1.863,0,2.357,2.357,0,0,1,1.106,1.339,2.31,2.31,0,0,1-.058,1.688q-2.1,4.424-4.191,4.424a3.887,3.887,0,0,1-.931-.116,2.991,2.991,0,0,1-1.806-1.688,15.186,15.186,0,0,1-.464-5.122q.058-3.9.989-11.467,1.4-12.109,4.655-31.9,1.863-10.826,3.842-21.07-3.609,5.823-7.683,11.641-7.681,11.176-13.386,8.032-3.725-2.677-3.609-9.488A33.881,33.881,0,0,1,326.97,6.2q3.842-8.146,9.08-11.99t9.313-2.619q4.072,1.222,4.656,6.112.582-.931,1.048-1.863,6.17-29.219,12.4-46.972t10.186-19.033A2.4,2.4,0,0,1,376.445-69.466ZM336.982,18.89q5.471-7.916,10.01-15.832A1.838,1.838,0,0,1,345.6.73q.466-4.307-1.513-4.889h-.7q-2.445,0-6,3.2a28.443,28.443,0,0,0-6.344,9.138,28.019,28.019,0,0,0-2.5,7.858,22.906,22.906,0,0,0-.291,6.519q.349,2.5,1.281,2.968a1.242,1.242,0,0,0,1.106-.058,9.958,9.958,0,0,0,2.5-1.979A34.44,34.44,0,0,0,336.982,18.89Zm32.13-68.334a117.541,117.541,0,0,0,3.376-12.107q-5.707,11.99-12.225,37.368,3.26-7.916,7.568-21.3Q368.643-48.044,369.111-49.443Z" transform="translate(50.488 7.821)" fill="#f8c1b8"/>
    <path id="Path_492" data-name="Path 492" d="M387-18.371a2.158,2.158,0,0,1,1.688.349,1.993,1.993,0,0,1,.873,1.455,2.338,2.338,0,0,1-.349,1.63q-13.157,18.4-23.981,26.076a14.782,14.782,0,0,1-8.5,3.027,9.559,9.559,0,0,1-5.7-1.746,10.368,10.368,0,0,1-2.5-2.794,17.525,17.525,0,0,1-1.921-4.889,24.187,24.187,0,0,1-.291-8.265,57.92,57.92,0,0,1,2.619-11.641v-.116q3.257-10.591,7.916-16.763t8.382-6.286a3.18,3.18,0,0,1,3.492,2.328Q370-32.629,365.7-26.462a72.831,72.831,0,0,1-12.689,13.271,58.548,58.548,0,0,0-1.979,8.382,28.313,28.313,0,0,0-.407,6.112,14.25,14.25,0,0,0,.815,3.958A10.348,10.348,0,0,0,352.6,7.646a6.375,6.375,0,0,0,1.106,1.164q3.492,2.559,8.964-1.4Q372.912.2,385.487-17.5A2.508,2.508,0,0,1,387-18.371ZM364.416-33.447q-4.077,2.561-8.032,11.059Q363.133-29.137,364.416-33.447Z" transform="translate(64.378 27.563)" fill="#f8c1b8"/>
    <path id="Path_493" data-name="Path 493" d="M399.03-8.4a2.227,2.227,0,0,1,1.688.466,2.2,2.2,0,0,1,.873,1.513,2.055,2.055,0,0,1-.466,1.63,2.267,2.267,0,0,1-1.515.815q-8.5,1.164-15.832,1.863-6.752,27.825-12.571,55.994t-7.568,40.278h.349a2.347,2.347,0,0,1,1.224,1.222,1.984,1.984,0,0,1,.057,1.688q-.7,1.979-1.106,2.968a7,7,0,0,1-1.222,1.921,2.329,2.329,0,0,1-1.746.931,2.225,2.225,0,0,1-.7-.116q-1.749-.466-1.806-3.085t1.572-12.98q2.1-12.572,6.4-32.828,5.707-27.825,12.456-55.645-3.96.349-9.313.815h-.233a1.944,1.944,0,0,1-1.048-.291A2.361,2.361,0,0,1,367.773-2a3.085,3.085,0,0,1-.409-1.048,2.477,2.477,0,0,1,.582-1.63,2.27,2.27,0,0,1,1.515-.815q6.519-.463,10.71-.815,3.024-12.107,5.588-22,1.045-4.074,2.385-8.44T391.7-47.223a51.586,51.586,0,0,1,4.771-10.128q2.559-4.016,4.889-4.365a2.914,2.914,0,0,1,3.143,1.4q2.794,4.191-2.852,18.393A179.846,179.846,0,0,1,386.456-12.59a.332.332,0,0,0-.116.233q-.582,2.212-1.4,5.588Q391.231-7.352,399.03-8.4Zm1.745-47.147Q395.65-47.863,390.3-28.073,399.61-45.535,400.774-55.546Z" transform="translate(72.138 13.109)" fill="#f8c1b8"/>
    <path id="Path_494" data-name="Path 494" d="M417.761-20.548a2.162,2.162,0,0,1,1.688.233,1.954,1.954,0,0,1,.99,1.4,2.505,2.505,0,0,1-.291,1.746,104.59,104.59,0,0,1-7.858,10.652,64.608,64.608,0,0,1-10.361,9.953q-5.762,4.424-9.72,4.424a6,6,0,0,1-2.445-.466q-7.8-3.376-1.63-27.357a2.129,2.129,0,0,1,1.048-1.4,2.161,2.161,0,0,1,1.688-.233,2.14,2.14,0,0,1,1.339,1.048,2.052,2.052,0,0,1,.233,1.63q-1.4,5.588-2.037,9.837a39.683,39.683,0,0,0-.582,6.461,15.211,15.211,0,0,0,.466,3.667,4.953,4.953,0,0,0,.7,1.746,2.112,2.112,0,0,0,.524.407q3.027,1.283,11-6.053a79.167,79.167,0,0,0,13.795-16.763A2.787,2.787,0,0,1,417.761-20.548Zm-25.785-9.08q-3.378-.233-2.1-2.794a5.816,5.816,0,0,1,3.027-2.794q2.908-.931,3.492,1.513a2.829,2.829,0,0,1-1.746,3.492A5.92,5.92,0,0,1,391.976-29.628Z" transform="translate(88.619 29.332)" fill="#f8c1b8"/>
    <path id="Path_495" data-name="Path 495" d="M450.713-21.631a2.289,2.289,0,0,1,1.746.233,2.136,2.136,0,0,1,1.048,1.339,2.168,2.168,0,0,1-.233,1.688,130.032,130.032,0,0,1-6.868,11.059,29.976,29.976,0,0,1-5.937,6.4,8.091,8.091,0,0,1-5.937,1.979q-5.823-.7-9.2-12.572-2.445-8.032-4.191-8.032a1.271,1.271,0,0,0-.988.291,11.66,11.66,0,0,0-2.039,2.1,34.679,34.679,0,0,0-3.083,4.6q-1.691,2.91-4.424,8.614t-5.879,13.5a2.1,2.1,0,0,1-2.1,1.4,1.066,1.066,0,0,1-.466-.116A2.02,2.02,0,0,1,400.423,8.4Q401.59-1.14,409.153-27.1q.815-2.677,1.166-4.074a2.349,2.349,0,0,1,1.164-1.339,2.318,2.318,0,0,1,1.688-.175,2.136,2.136,0,0,1,1.339,1.048,1.973,1.973,0,0,1,.116,1.746q-.235.815-1.164,4.074-2.561,8.966-3.96,13.969,3.725-6.985,6.521-9.662t5.355-2.561a5.724,5.724,0,0,1,4.829,3.143,39.345,39.345,0,0,1,3.434,8.265Q432.2-3.7,435.114-3.354q1.395.235,3.434-1.572a28.213,28.213,0,0,0,4.364-5.239q2.328-3.434,3.552-5.413t2.85-5.006A2.149,2.149,0,0,1,450.713-21.631Z" transform="translate(97.865 30.996)" fill="#f8c1b8"/>
    <path id="Path_496" data-name="Path 496" d="M461.68-20.548a2.162,2.162,0,0,1,1.688.233,1.954,1.954,0,0,1,.99,1.4,2.5,2.5,0,0,1-.293,1.746,104.3,104.3,0,0,1-7.856,10.652,64.606,64.606,0,0,1-10.361,9.953q-5.762,4.424-9.72,4.424a6.014,6.014,0,0,1-2.446-.466q-7.795-3.376-1.628-27.357a2.129,2.129,0,0,1,1.048-1.4,2.161,2.161,0,0,1,1.688-.233,2.14,2.14,0,0,1,1.339,1.048,2.052,2.052,0,0,1,.233,1.63q-1.4,5.588-2.037,9.837a39.675,39.675,0,0,0-.582,6.461,15.211,15.211,0,0,0,.466,3.667,4.952,4.952,0,0,0,.7,1.746,2.085,2.085,0,0,0,.524.407q3.027,1.283,11-6.053a79.112,79.112,0,0,0,13.793-16.763A2.8,2.8,0,0,1,461.68-20.548Zm-25.785-9.08q-3.378-.233-2.1-2.794a5.816,5.816,0,0,1,3.027-2.794q2.908-.931,3.492,1.513a2.829,2.829,0,0,1-1.746,3.492A5.919,5.919,0,0,1,435.895-29.628Z" transform="translate(115.71 29.332)" fill="#f8c1b8"/>
    <path id="Path_497" data-name="Path 497" d="M494.632-21.631a2.289,2.289,0,0,1,1.746.233,2.136,2.136,0,0,1,1.048,1.339,2.168,2.168,0,0,1-.233,1.688,129.548,129.548,0,0,1-6.87,11.059,29.931,29.931,0,0,1-5.935,6.4,8.091,8.091,0,0,1-5.937,1.979q-5.823-.7-9.2-12.572-2.445-8.032-4.191-8.032a1.271,1.271,0,0,0-.988.291,11.61,11.61,0,0,0-2.039,2.1,34.524,34.524,0,0,0-3.083,4.6q-1.69,2.91-4.424,8.614t-5.879,13.5a2.1,2.1,0,0,1-2.1,1.4,1.06,1.06,0,0,1-.466-.116A2.02,2.02,0,0,1,444.342,8.4q1.164-9.543,8.729-35.506.815-2.677,1.166-4.074a2.348,2.348,0,0,1,1.164-1.339,2.318,2.318,0,0,1,1.688-.175,2.136,2.136,0,0,1,1.339,1.048,1.973,1.973,0,0,1,.116,1.746q-.235.815-1.166,4.074-2.559,8.966-3.958,13.969,3.725-6.985,6.519-9.662t5.357-2.561a5.724,5.724,0,0,1,4.829,3.143,39.341,39.341,0,0,1,3.434,8.265q2.561,8.964,5.473,9.313,1.395.235,3.434-1.572a28.215,28.215,0,0,0,4.364-5.239q2.328-3.434,3.552-5.413t2.85-5.006A2.149,2.149,0,0,1,494.632-21.631Z" transform="translate(124.955 30.996)" fill="#f8c1b8"/>
    <path id="Path_498" data-name="Path 498" d="M536.313-19.412a2.407,2.407,0,0,1,1.4.99,2.156,2.156,0,0,1,.349,1.688,1.956,1.956,0,0,1-.99,1.4Q516.116-1.717,504.124,8.527q-7.332,44.234-17.113,67.286t-19.09,25.611a9.292,9.292,0,0,1-2.445.349,8.055,8.055,0,0,1-6.4-3.26q-5-6.286-3.609-20.139,1.63-14.9,10.128-30.5Q478.052,25.4,499.935,6.2q1.627-9.893,3.027-20.721-3.728,5.588-6.868,9.779-4.889,6.4-8.382,5.355Q484.917-.2,484.45-4.511a34.2,34.2,0,0,1,1.224-10.535,48.685,48.685,0,0,1,5.179-12.747q3.609-6.286,7.918-8.382Q504.707-39.2,510.3-34.2a2.417,2.417,0,0,1,.757,1.572,2.063,2.063,0,0,1-.582,1.572,2.258,2.258,0,0,1-1.573.757,2.226,2.226,0,0,1-1.628-.524q-4.191-3.842-8.5,0-4.889,4.426-7.8,14.028T489.108-3.929a16.025,16.025,0,0,0,3.376-3.492,159.748,159.748,0,0,0,11.99-17.811,2.132,2.132,0,0,1,2.676-.99,1.97,1.97,0,0,1,1.515,2.386q-1.632,13.387-3.492,25.611a331.934,331.934,0,0,1,29.452-20.838A1.934,1.934,0,0,1,536.313-19.412ZM466.641,97.116q3.143-.815,6.81-5.588a78.037,78.037,0,0,0,7.974-13.969q4.3-9.2,8.905-25.843t8.44-38.3a145.6,145.6,0,0,0-29.219,36.67,86.184,86.184,0,0,0-5.762,12.572,71.839,71.839,0,0,0-3.2,11.408,53.29,53.29,0,0,0-.933,9.488,28.911,28.911,0,0,0,.815,7.392,14.462,14.462,0,0,0,2.1,4.773A3.625,3.625,0,0,0,466.641,97.116Z" transform="translate(131.643 28.196)" fill="#f8c1b8"/>
    <path id="Path_499" data-name="Path 499" d="M635.347-40.9a2.05,2.05,0,0,1,.466,1.63,2.126,2.126,0,0,1-.931,1.513,2.055,2.055,0,0,1-2.676-.116q-5.59-1.979-78.461-.349Q546.172-6.439,538.377,30.7q-9.313,44.816-11.293,61.582a1,1,0,0,1,.466.116A1.757,1.757,0,0,1,528.83,93.5a2.127,2.127,0,0,1,0,1.688,23.363,23.363,0,0,1-.989,2.736,6.749,6.749,0,0,1-1.222,1.746,2.375,2.375,0,0,1-1.746.873,3.529,3.529,0,0,1-.815-.116,2.681,2.681,0,0,1-1.8-2.445,17.849,17.849,0,0,1,.293-5.355q.466-4.889,2.1-14.086,2.91-17.462,8.729-45.4,7.8-37.717,15.717-71.244-7.918.116-19.674.466-18.626.466-21.885.466a2.143,2.143,0,0,1-1.573-.64,2.14,2.14,0,0,1-.64-1.572,2.261,2.261,0,0,1,.291-1.106,2.068,2.068,0,0,1,.815-.815,2.267,2.267,0,0,1,1.108-.291q3.257,0,21.767-.582,11.525-.233,20.954-.466,3.725-15.366,6.635-26.076a2.139,2.139,0,0,1,1.048-1.4,2.167,2.167,0,0,1,1.688-.233A2.132,2.132,0,0,1,560.96-69.3a2.281,2.281,0,0,1,.233,1.746q-2.792,10.363-6.4,24.8,34.923-.931,52.734-.7t22.411.757Q634.531-42.177,635.347-40.9Z" transform="translate(162.58 7.772)" fill="#f8c1b8"/>
    <path id="Path_500" data-name="Path 500" d="M590.882,5.6a2.124,2.124,0,0,1,1.688.233,2.2,2.2,0,0,1,.99,1.4,2.28,2.28,0,0,1-.234,1.746q-3.842,6.172-7.334,11t-6,7.8a46.355,46.355,0,0,1-4.829,5.006,32.067,32.067,0,0,1-3.727,2.91,8.608,8.608,0,0,1-2.792,1.164,7.431,7.431,0,0,1-1.922.233c-.349-.04-.755-.1-1.222-.175q-5.471-1.4-6.168-12.456a19.424,19.424,0,0,0-.582-4.133,9.136,9.136,0,0,0-.815-2.212q-.352-.524-.584-.524h-.116a4.6,4.6,0,0,0-2.561,1.455,29.791,29.791,0,0,0-3.956,4.715,80.308,80.308,0,0,0-4.891,7.916q-2.561,4.654-5.646,11.758t-6,15.366a1.987,1.987,0,0,1-2.1,1.513h-.466a2.134,2.134,0,0,1-.988-.466,2.453,2.453,0,0,1-.642-.873,1.52,1.52,0,0,1-.116-.989q.235-4.775,6.112-30.674t9.664-41.675q3.781-15.774,5.879-24.155a156.965,156.965,0,0,1,9.137-27.415q5.18-11.35,8.907-12.049a2.8,2.8,0,0,1,3.027,1.164q2.559,3.492-2.969,18.044T552.466-23.155Q543.5,13.75,538.613,36.1a90.593,90.593,0,0,1,10.126-17.171q5.006-6.344,9.2-5.762,5.239.7,5.819,10.943.585,7.8,2.8,8.382a2.124,2.124,0,0,0,.988,0,10.158,10.158,0,0,0,2.619-1.4,23.822,23.822,0,0,0,4.307-3.783q2.328-2.5,6.344-7.858T589.483,6.53A2.266,2.266,0,0,1,590.882,5.6ZM568.763-71.466q-6.4,9.2-11.99,30.383Q567.015-61.687,568.763-71.466Z" transform="translate(177.709 3.069)" fill="#f8c1b8"/>
    <path id="Path_501" data-name="Path 501" d="M604.507-18.371a2.158,2.158,0,0,1,1.688.349,2,2,0,0,1,.873,1.455,2.33,2.33,0,0,1-.351,1.63q-13.154,18.4-23.981,26.076a14.774,14.774,0,0,1-8.5,3.027,9.559,9.559,0,0,1-5.7-1.746,10.374,10.374,0,0,1-2.5-2.794,17.579,17.579,0,0,1-1.919-4.889,24.149,24.149,0,0,1-.291-8.265,57.927,57.927,0,0,1,2.619-11.641v-.116q3.257-10.591,7.916-16.763t8.38-6.286a3.181,3.181,0,0,1,3.494,2.328q1.281,3.378-3.028,9.546a72.763,72.763,0,0,1-12.687,13.271,58.34,58.34,0,0,0-1.979,8.382,28.328,28.328,0,0,0-.407,6.112,14.187,14.187,0,0,0,.815,3.958,10.35,10.35,0,0,0,1.164,2.386,6.424,6.424,0,0,0,1.1,1.164q3.495,2.559,8.964-1.4Q590.42.2,602.994-17.5A2.5,2.5,0,0,1,604.507-18.371ZM581.922-33.447q-4.074,2.561-8.031,11.059Q580.641-29.137,581.922-33.447Z" transform="translate(198.541 27.563)" fill="#f8c1b8"/>
    <path id="Path_502" data-name="Path 502" d="M698.3,53.719a2.189,2.189,0,0,1,2.214,2.212,1.974,1.974,0,0,1-.349,1.106,2.53,2.53,0,0,1-.873.815,2.267,2.267,0,0,1-1.107.291,32.66,32.66,0,0,0-9.486,1.339A72.181,72.181,0,0,0,676.653,64.2q-6.752,3.257-11.175,5.646t-12.225,6.694q-8.847,5-13.271,7.392a94.473,94.473,0,0,1-10.01,4.6,26.333,26.333,0,0,1-9.2,2.212,8.718,8.718,0,0,1-5.237-1.513q-5.357-4.077-2.212-17.811,8.728-38.3,24.212-92.431,3.728-13.036,6.81-23.166t5.24-16.705q2.151-6.575,4.016-11.059t2.852-6.694a11,11,0,0,1,2.036-3.26,3.646,3.646,0,0,1,1.515-1.106,5.186,5.186,0,0,1,1.281.058q2.093.235,2.561,3.26a42.193,42.193,0,0,1-.116,9.313,2.266,2.266,0,0,1-.815,1.513,2.226,2.226,0,0,1-1.63.524,2.252,2.252,0,0,1-1.573-.757,1.947,1.947,0,0,1-.522-1.63q.23-2.1.349-3.842-6.056,13.853-18.628,58.206-14.9,52.5-23.166,88.822-2.559,10.826.466,13.155a4.2,4.2,0,0,0,2.1.7,9.342,9.342,0,0,0,3.085-.349q1.807-.468,3.552-.99a32.666,32.666,0,0,0,4.424-1.8q2.678-1.283,4.54-2.212t5.062-2.677q3.2-1.746,4.949-2.736t5.122-2.852q6.517-3.728,9.952-5.588t9.547-4.947q6.109-3.085,10.184-4.656a70.674,70.674,0,0,1,8.905-2.736A32.965,32.965,0,0,1,698.3,53.719Z" transform="translate(228.486 0)" fill="#f8c1b8"/>
    <path id="Path_503" data-name="Path 503" d="M702.715-24.785a2.313,2.313,0,0,1,1.688.291,2.2,2.2,0,0,1,.99,1.4,1.964,1.964,0,0,1-.233,1.63q-1.4,2.212-3.027,4.715T697.3-9.942q-3.2,4.307-6.112,7.509A40.938,40.938,0,0,1,684.9,3.212q-3.378,2.445-5.822,2.445a3.6,3.6,0,0,1-1.628-.349q-5.588-2.1-3.143-17.811a47.142,47.142,0,0,1-6.985,7.916q-4.54,3.842-7.918.931-3.141-2.559-2.85-9.08a27.327,27.327,0,0,1,3.783-12.572,2.137,2.137,0,0,1,1.4-1.048,2.282,2.282,0,0,1,1.746.233,2.128,2.128,0,0,1,1.046,1.339A2.167,2.167,0,0,1,664.3-23.1a21.779,21.779,0,0,0-2.736,6.868,18.838,18.838,0,0,0-.466,6A4.954,4.954,0,0,0,662.2-7.148q.58.584,2.212-.815,3.024-2.559,7.567-9.2.813-1.048,1.222-1.572c.272-.349.6-.774.99-1.281a4.662,4.662,0,0,1,.931-.989q.349-.233.815-.524a1.4,1.4,0,0,1,.931-.233,4.3,4.3,0,0,1,1.048.291,2.668,2.668,0,0,1,1.63,2.619,20.833,20.833,0,0,1-.582,5.3,37.46,37.46,0,0,0-.99,9.779A28.336,28.336,0,0,0,678.5.36q.233.757.58.757.352.233,1.224-.175A12.071,12.071,0,0,0,682.4-.4a32.222,32.222,0,0,0,2.736-2.386q1.513-1.455,3.434-3.551t3.9-4.6q1.977-2.5,4.307-5.821t4.54-7.043A1.948,1.948,0,0,1,702.715-24.785Z" transform="translate(255.856 34.907)" fill="#f8c1b8"/>
    <path id="Path_504" data-name="Path 504" d="M715.4-32.333a2.2,2.2,0,0,1,1.4.989,2.13,2.13,0,0,1,.234,1.688,2.139,2.139,0,0,1-1.049,1.4q-7.8,4.773-17.811,18.277a50,50,0,0,0,4.54,8.032q2.328,3.26,4.307,3.958,1.4.466,2.677-1.513a1.95,1.95,0,0,1,1.4-.989,2.159,2.159,0,0,1,1.688.349,2.2,2.2,0,0,1,.931,1.455,2.129,2.129,0,0,1-.293,1.63q-2.445,3.606-5.819,3.609a7.657,7.657,0,0,1-1.864-.233Q700.611,4.57,695.257-5.791a221.413,221.413,0,0,0-14.086,23.166,2.2,2.2,0,0,1-1.981,1.164,1.7,1.7,0,0,1-1.046-.349,1.944,1.944,0,0,1-1.107-1.281,2.114,2.114,0,0,1,.176-1.746,250.077,250.077,0,0,1,15.832-25.727q-4.892-11.176-4.656-16.88a2.048,2.048,0,0,1,.7-1.572,2.13,2.13,0,0,1,1.63-.582,2.258,2.258,0,0,1,1.573.757,2.349,2.349,0,0,1,.639,1.63q-.233,3.728,3.145,12.456Q705.613-27.327,713.65-32.1A2.286,2.286,0,0,1,715.4-32.333Z" transform="translate(268.434 31.221)" fill="#f8c1b8"/>
    <path id="Path_505" data-name="Path 505" d="M747.929-24.785a2.308,2.308,0,0,1,1.686.291,2.2,2.2,0,0,1,.991,1.4,1.97,1.97,0,0,1-.233,1.63q-1.4,2.212-3.027,4.715t-4.831,6.81q-3.2,4.307-6.112,7.509a41.01,41.01,0,0,1-6.286,5.646Q726.74,5.657,724.3,5.657a3.6,3.6,0,0,1-1.628-.349q-5.588-2.1-3.143-17.811a47.145,47.145,0,0,1-6.985,7.916q-4.54,3.842-7.918.931-3.143-2.559-2.851-9.08a27.329,27.329,0,0,1,3.784-12.572,2.136,2.136,0,0,1,1.4-1.048,2.282,2.282,0,0,1,1.746.233,2.128,2.128,0,0,1,1.046,1.339,2.168,2.168,0,0,1-.231,1.688,21.785,21.785,0,0,0-2.737,6.868,18.886,18.886,0,0,0-.464,6,4.945,4.945,0,0,0,1.106,3.085q.58.584,2.212-.815,3.024-2.559,7.567-9.2.812-1.048,1.222-1.572c.271-.349.6-.774.989-1.281A4.662,4.662,0,0,1,720.34-21q.349-.233.815-.524a1.4,1.4,0,0,1,.931-.233,4.327,4.327,0,0,1,1.048.291,2.664,2.664,0,0,1,1.628,2.619,20.745,20.745,0,0,1-.58,5.3,37.468,37.468,0,0,0-.99,9.779A28.323,28.323,0,0,0,723.716.36q.233.757.58.757.352.233,1.224-.175a12.066,12.066,0,0,0,2.1-1.339,32.226,32.226,0,0,0,2.734-2.386q1.513-1.455,3.434-3.551t3.9-4.6q1.977-2.5,4.307-5.821t4.54-7.043A1.948,1.948,0,0,1,747.929-24.785Z" transform="translate(283.745 34.907)" fill="#f8c1b8"/>
    <path id="Path_506" data-name="Path 506" d="M777.689-16.031a2.137,2.137,0,0,1,1.688.116,2.373,2.373,0,0,1,1.166,1.281,1.859,1.859,0,0,1-.116,1.688q-3.143,6.752-7.1,13.853t-8.671,14.377a71,71,0,0,1-9.371,11.874q-4.659,4.6-7.918,4.6a3.335,3.335,0,0,1-1.512-.349q-4.775-1.865-3.027-14.435,1.627-11.758,8.615-33.294a.232.232,0,0,0-.175.058.237.237,0,0,1-.176.058q-2.559,1.746-4.249,2.677a44.075,44.075,0,0,1-4.538,2.1,12.778,12.778,0,0,1-5.413,1.048,9.018,9.018,0,0,1-4.773-1.63,10.4,10.4,0,0,1-4.542-8.731q-.114-5.588,4.192-12.223a31.6,31.6,0,0,1,6.459-7.334q3.784-3.143,6.461-1.4a3.882,3.882,0,0,1,1.922,3.027q.289,2.1-2.037,8.091a127.78,127.78,0,0,1-7.8,15.657q3.606.466,11.872-5.006a26.6,26.6,0,0,1,2.272-1.455c.5-.272,1.086-.563,1.746-.873a2.957,2.957,0,0,1,1.688-.349,3.609,3.609,0,0,1,1.4.582q1.746,1.4.58,4.889-11.639,36.088-9.2,43.771c.155.309.27.542.349.7q.931.114,2.851-1.513a41.1,41.1,0,0,0,4.774-5.122q2.85-3.492,6.17-8.382T768.609.324q4.016-7.1,7.741-15.133A2.294,2.294,0,0,1,777.689-16.031Zm-45.224-7.858q-1.048,4.077.466,6.519,8.5-14.782,9.08-20.023a16.012,16.012,0,0,0-3.2,2.677,31.694,31.694,0,0,0-3.724,4.831A18.843,18.843,0,0,0,732.465-23.889Z" transform="translate(299.673 25.106)" fill="#f8c1b8"/>
    <path id="Path_507" data-name="Path 507" d="M820.331-22.714a2.2,2.2,0,0,1,1.457.931,1.993,1.993,0,0,1,.289,1.688,2.251,2.251,0,0,1-.931,1.4Q800.541-5.311,787.386,7.96q-6.871,41.093-15.017,66.7-9.662,30.148-18.742,32.712a6.375,6.375,0,0,1-1.746.233,5.959,5.959,0,0,1-4.656-2.328q-3.257-4.191-3.551-13.853T746.7,68.611a118.8,118.8,0,0,1,9.606-25.378A160.29,160.29,0,0,1,783.312,5.748q1.746-10.943,3.492-22.933a98.446,98.446,0,0,1-6.752,9.2Q774.93-1.7,770.274-4.5q-3.841-2.328-4.074-9.72a39.13,39.13,0,0,1,3.378-16.123A2.119,2.119,0,0,1,770.8-31.5a2.126,2.126,0,0,1,1.688,0,2.393,2.393,0,0,1,1.222,1.164,2.1,2.1,0,0,1,.058,1.746q-3.143,8.5-3.085,13.853t1.922,6.4q1.278.815,3.957-2.445a126.554,126.554,0,0,0,11.99-17.695,1.992,1.992,0,0,1,2.677-.989,2.048,2.048,0,0,1,1.513,2.386Q790.76-12.526,788.667.51A221.757,221.757,0,0,1,818.7-22.423,2.122,2.122,0,0,1,820.331-22.714Zm-52.269,96.1Q775.51,50.1,781.915,13.9a150.544,150.544,0,0,0-21.653,31.431,109.113,109.113,0,0,0-7.974,19.5,92.34,92.34,0,0,0-3.665,17.4,64.616,64.616,0,0,0-.118,12.805q.584,5.352,2.212,7.334a1.589,1.589,0,0,0,1.63.7,3.719,3.719,0,0,0,1.281-.582,14.928,14.928,0,0,0,2.328-2.386,29.517,29.517,0,0,0,3.26-4.889q1.632-2.968,4.074-8.673A139.275,139.275,0,0,0,768.062,73.383Z" transform="translate(309.592 31.673)" fill="#f8c1b8"/>
  </g>
</svg>
