<svg xmlns="http://www.w3.org/2000/svg" width="34.063" height="23.996" viewBox="0 0 34.063 23.996"><defs><style>.a{fill:#254e6d;}</style></defs><path class="a" d="M316.286,459.748a4.28,4.28,0,0,0-3.011-3.032C310.618,456,299.966,456,299.966,456s-10.652,0-13.309.716a4.283,4.283,0,0,0-3.012,3.032,48.243,48.243,0,0,0,0,16.5,4.285,4.285,0,0,0,3.012,3.032c2.657.716,13.309.716,13.309.716s10.652,0,13.309-.716a4.282,4.282,0,0,0,3.011-3.032,48.177,48.177,0,0,0,0-16.5Zm-19.8,13.317v-10.13l8.9,5.065Z" transform="translate(-282.934 -456)"/></svg>